/* XPM */
static char *d97119afeb454981c8500e5b435c3de81LzlTWVWdRSXMPQo[] = {
/* columns rows colors chars-per-pixel */
"70 65 52 1 ",
"  c #5D4037",
". c black",
"X c #372621",
"o c #6D4C41",
"O c #3E2723",
"+ c #271A17",
"@ c #4E342E",
"# c #795548",
"$ c #5C3E36",
"% c #BF360C",
"& c #1F1412",
"* c #231714",
"= c #6E4D42",
"- c #6A4A3F",
"; c #2F1D1A",
": c #601B06",
"> c #8F2909",
", c #452F29",
"< c #64453B",
"1 c #2F201C",
"2 c #4D332C",
"3 c #3F170C",
"4 c #593C35",
"5 c #462E29",
"6 c #D84315",
"7 c #CC3D11",
"8 c #6C220B",
"9 c #3D2B24",
"0 c #D24013",
"q c #100A09",
"w c #140D0C",
"e c #C5390E",
"r c gray38",
"t c #263238",
"y c #13191C",
"u c #303336",
"i c #444A4D",
"p c #484F52",
"a c #584B48",
"s c #4E4A4A",
"d c #37474F",
"f c #2F3D44",
"g c #1C2428",
"h c #661E08",
"j c #463029",
"k c #401D13",
"l c #32221E",
"z c gray13",
"x c #361105",
"c c #523931",
"v c #1E1512",
"b c #414141",
/* pixels */
"        .Xoooo.ooooo.OO+@#$#@+OO.%.%.&O.+###@@XooooX....oo.OOOOOOOOOOO",
"        .XoooXoooooX&*+=##-#$;.:%%.%%>:&;$$$##,XXooooooooo.OOOOOOOOOOO",
"        .Xooooooooo..<###OOOO:%%%%.%%%%%:OOOO##@@.ooooooooo.OOOOOOOOOO",
"        .Xooooooooo.@###OOO..%%%%%.%%%%%:..OO####@.oo.Xoooo.OOOOOOOOOO",
"        .Xoooooooo1<###2OO3%.%%%%%.%%%%%:%%3OO-$2#<1Xoooooo.OOOOOOOOOO",
"        .Xooooooo.<##$OOO.%%.%%%%%.%%%%%:%%%.OO####+ooooooo.OOOOOOOOOO",
"        .XooooooX.4##-$O&:%%.%%%%%.%%%%%:%%%:&O###<+Xoooooo.OOOOOOOOOO",
"        .XoooooX@@.@@5O&%%%%.%66%%.%%%%%:%%%%%&O5@.+@.ooooo.OOOOOOOOOO",
"        .XoooooX@#@..OO:%%%%.%667%.6%%%%:%%%%%:O&.@<#@Xoooo.OOOOOOOOOO",
"        .XooooX,##-5O..%%%%%.7666%.6%%%%:%%%%%:.&5###<1ooooo&OOOOOOOOO",
"        .Xoooo.<##OO.:.%%%%%.66666.6%7%%8%%%%%:%:OO$##<.oooo&OOOOOOOOO",
" .............@##OOO.:.%%%%6.66%66.6%7%%8%%7%%:%%.O$##<.oooo&OOOO.OOOO",
"9#.OOOOOOOOO&@##$O;:%:.%%%%6.66%66.6607687%07%:%%:&O#$#@.XXXq&&99#9&&&",
"##.OOOOOOOOO+###OO&%%:.%6%76.66666.66666866666:%%%.O#O$#@9#########.oo",
"##.OOOOOOOOO+###OO:%%:.%6676.66666.66666866666:%%%%&####@9#########.oo",
"#9OOOOO;OOO&,#$$O&>%%:.76666.66666.666668666768%7%%3O###<w#########.oo",
"#9OOOOO&.&..<OO$O.%%6:.76666.66666.66766866766866%%:O##O#+#########.oo",
"#9OOOOOOO&O.<##$.%%%6:.66666.66%66.66766866766866%%:OO#O#+#########.oo",
"#9OOOOOOOOO.<##$.%7768.66666.67766.6676686676686667%.O#$#+########9Xoo",
"#9OOOOOOOOO.<##$.%7668.66666.66%66.6676686676686666%.O###+########.ooo",
"#9OOOOOOOOO.++9*.60668.66666.86666.666%686666686666e.&+++w######99.ooo",
"#&OOOOOOOOO.<@@5.66668.6%66..r.666.66666866666866667.O@@@+########.ooo",
"#&OOOOOOOOO.<##$.66668.6%68.ttr......................O###+########.ooo",
"9&OOOOOOOOO.<O#2.60668.6%8yttutipiiaipiiiaipiisipiii.O2##+########.ooo",
"..OOOO......<##O.67668.6%6.ttttdttttdtttttdttttdfttt.OO##9............",
"@+.O&.     .<##O.67668.7668.dtd......................O$##9            ",
"@@@.1      .<##O.60668.66668.g:777.77777h77777h77777.O$##9            ",
"@@@.       .<##O.66668.66666.%6676.66666866766866666.O###9            ",
"@@@.       .<##O.666%8.66666.66676.666668666%6866666.O##O9           .",
"@@@.       .=##2.666%8.66666.66676.6666%8666%6866676.O#O$9           .",
"@@@.       .#O#$.666%8.66%66.66676.666%68666%68666%6.O###9           .",
"@@@.       .$O#$.66668.66676.66676.666668666668666%6.O###9           .",
"@@@.1      .$O#O.66668.66676.66676.666668666668666%6.O###9           .",
"@@@.1      .###O.66668.66666.66676.66666866666866666.O###9           .",
"@@@.j1     .+++*.6668yyk6666.66606.66666866666866666.&l++w          1#",
"@@@.       .@#@5.66..yt..666.66666.66666866666866666.O@@@+ .        1#",
"@@@.       .###$.68t.8.8t.66.66666.66666866666866666.O###9 .        1#",
"@@@.       .###2.68t.8.8t.66.66666.66766866666866666.O###9.1111111XXX9",
"............###O.68tt..zr.66.66666.66766866666866666.O$##9OOOOOO.ooooo",
"ooooo.#####.##OO.66.ttti.%66.6%666.66666866766866666.OO##9OOOOOO.ooooo",
"ooooo.#####.###O.6668x.:7666.6%666.66666866766866666.OO##9OOOOOO.ooooo",
"ooooo.#####.$O#$.66668.66676.6%666.66666866766866666.O$##9OOOOOO.ooooo",
"ooooo.#####.$##$.66668.66676.66666.66666866666866666.O$##9OOOOOO.ooooo",
"ooooc9#####.###$.66668.66676.66666.66666866666866667.O#$O9OOOOO&Xooooo",
"ooooX######.###O.66668.66676.66666.666%68666668666%6.O##O9OOOOO.oooooo",
"ooooX######.###O.66668.66606.66666.666778666668666%6.O##$9OOOOO.oooooo",
"ooooX######.###O.66668.66666.66666.666668666668666%6.O###9OOOOO.oooooo",
"ooooX######.###$.66668.66666.66666.66666866666866666.O###9OOOOO.oooooo",
"oXXoX#####9.++9*.67668.06666.86666.66666866666866666.&+++vOOOOO.oooooo",
".  ...##..#.@@@5.67668.7%66..r.666.66666866666866666.O@#@+OOOOO.oooooo",
"      ......###$.67668.7668.ttr......................O$##9............",
"           .###2.66668.668yttutipiiaipiiiaipiisipiii.O$##9      1j  1o",
"           .###O.66668.666.ttttdttttdtttttdttttdfttt.O$##9     .    1o",
"           .##OO.66668.6668.dtd......................O$##9     .    1o",
"           .##OO.66%68.66668.g:777.77777h7777%h77777.O##$9          1o",
"           .##OO.66%68.66%66.%6666.66666866666:66666.O##O9          1o",
"          ..##OO.666%8.66676.66666.666%6866666866666.O###9          1o",
"         1 .$#$O.66678.66676.66676.66076866666866666.O###9          Xo",
"         1 .O##O.66668.66676.66676.66766866666866666.O###9          Xo",
"           .-##O.66668.66606.66606.660668660668666%6.O$##9          Xo",
"           .###$.66668.66666.66666.6666686%666866%66.O$##9          Xo",
"           .###$.66668.66666.66666.6666686%666866666.O$##9          Xo",
"    j111   .+++*.8888x.88888.88888.88888x88888x88888.&+++w          Xo",
"...........rrrrrrrrrrrrrrrrrrrrrrrrrrrrrrrrrrrrrrrrrrrrrrr............",
"zzzzzzzzzzzzbrrrrrrrrrrrrrrrrrrrrrrrrrrrrrrrrrrrrrrrrrrrrbzzzzzzzzzzzz"
};
