/* XPM */
static char *_22d7c98878b43f7b10af7f5acbaf4e5jd9EESmcJQn7jKdx[] = {
/* columns rows colors chars-per-pixel */
"70 65 244 2 ",
"   c #208575",
".  c #30B06D",
"X  c #40A27C",
"o  c #3FC07F",
"O  c #4FC973",
"+  c #7CF876",
"@  c #83F176",
"#  c #275AD9",
"$  c #1F56EF",
"%  c #1D56F4",
"&  c #145CF6",
"*  c #1C5BF5",
"=  c #1D57FB",
"-  c #155CFB",
";  c #1C5AFA",
":  c #2355EF",
">  c #2857EE",
",  c #225BED",
"<  c #304FFF",
"1  c #2157F6",
"2  c #2A55F3",
"3  c #245BF5",
"4  c #2A5DF6",
"5  c #2157F8",
"6  c #2B52FB",
"7  c #2259F9",
"8  c #295FFA",
"9  c #3052F4",
"0  c #3050F9",
"q  c #315FFA",
"w  c #1063EC",
"e  c #1D65EB",
"r  c #1562F4",
"t  c #1D61F5",
"y  c #1C6AF3",
"u  c #1D61FA",
"i  c #1C67F9",
"p  c #2262ED",
"a  c #2369EF",
"s  c #286DEF",
"d  c #3166E8",
"f  c #356AEC",
"g  c #386DEF",
"h  c #3276ED",
"j  c #377AEB",
"k  c #2462F5",
"l  c #2B63F5",
"z  c #246AF6",
"x  c #296DF4",
"c  c #2365FB",
"v  c #2A61F9",
"b  c #2E64F9",
"n  c #2C63FA",
"m  c #256AFC",
"M  c #2B6CFC",
"N  c #3264F5",
"B  c #356BF6",
"V  c #396EF2",
"C  c #3261F9",
"Z  c #3066FA",
"A  c #3666FD",
"S  c #3464FC",
"D  c #346BFC",
"F  c #396DFA",
"G  c #3A69FD",
"H  c #3A6FFD",
"J  c #3C6DFC",
"K  c #3867FD",
"L  c #2573F5",
"P  c #2D72F5",
"I  c #2C7CF5",
"U  c #2472F9",
"Y  c #2D73FB",
"T  c #2C7BFB",
"R  c #2778FA",
"E  c #3075F4",
"W  c #3D72F5",
"Q  c #347AF5",
"!  c #397DF7",
"~  c #3374FE",
"^  c #3D73FB",
"/  c #347BFA",
"(  c #3A7DFB",
")  c #2270EF",
"_  c #406FF1",
"`  c #4173F4",
"'  c #4274F9",
"]  c #4279F9",
"[  c #3DAABE",
"{  c #3DB683",
"}  c #51B186",
"|  c #55AFA6",
" . c #6DB9AA",
".. c #62B69C",
"X. c #3EC18D",
"o. c #62C49E",
"O. c #72CDB6",
"+. c #56ECAC",
"@. c #49D487",
"#. c #1E8DDE",
"$. c #3BBCC4",
"%. c #2793E6",
"&. c #2D81F6",
"*. c #3483F5",
"=. c #3B81F5",
"-. c #3484FC",
";. c #3D82FC",
":. c #3B8CFB",
">. c #368AFB",
",. c #3A97F9",
"<. c #3094EC",
"1. c #3CA2F1",
"2. c #5696DD",
"3. c #78B6DB",
"4. c #6EB7D2",
"5. c #448DEC",
"6. c #4284F5",
"7. c #4987F6",
"8. c #4B8BF5",
"9. c #4286FD",
"0. c #448BFB",
"q. c #4B8AFA",
"w. c #438AF4",
"e. c #518FFE",
"r. c #508FF6",
"t. c #4393FC",
"y. c #4D93FC",
"u. c #4B9BFD",
"i. c #4A97F4",
"p. c #5292F5",
"a. c #5C9BF5",
"s. c #5493FD",
"d. c #529BFC",
"f. c #5A9BFC",
"g. c #5898FA",
"h. c #5D9DE4",
"j. c #619DF5",
"k. c #639FF8",
"l. c #689DED",
"z. c #49A1EE",
"x. c #5DB3E5",
"c. c #48AAF4",
"v. c #55A4FE",
"b. c #5DA2FD",
"n. c #5AA9FA",
"m. c #45B4FF",
"M. c #5AB9FF",
"N. c #56A8EA",
"B. c #64B5ED",
"V. c #77B4ED",
"C. c #64A2F3",
"Z. c #64A5FD",
"A. c #6AA6FD",
"S. c #64AAFF",
"D. c #6CAAFD",
"F. c #69A9F5",
"G. c #74AFFA",
"H. c #70A5F5",
"J. c #6BB3FD",
"K. c #6ABAF8",
"L. c #76B1FA",
"P. c #7AB4FD",
"I. c #74BDFC",
"U. c #7CBCFE",
"Y. c #7ABAF3",
"T. c #57AFDF",
"R. c #7BD8DD",
"E. c #71C4D8",
"W. c #6EC9FF",
"Q. c #73C3FD",
"!. c #7DC4FF",
"~. c #7DCCFD",
"^. c #77C7F7",
"/. c #7ED0FF",
"(. c #76D1FF",
"). c #77C4E0",
"_. c #79E8FF",
"`. c #52D3DB",
"'. c #88A9B0",
"]. c #8AE79C",
"[. c #82B9E4",
"{. c #82BCFF",
"}. c #88BDF3",
"|. c #9DBBFC",
" X c #98BEF5",
".X c #9CB8EA",
"XX c #A8BAFA",
"oX c #B3BDFA",
"OX c #96BADE",
"+X c #89D5D0",
"@X c #A7C9D9",
"#X c #B2D5D7",
"$X c #98F1D5",
"%X c #A6EBD9",
"&X c #AFF5D3",
"*X c #9BD9ED",
"=X c #83C4FD",
"-X c #8CC4FD",
";X c #8ECDFE",
":X c #85C8F5",
">X c #92CCFC",
",X c #97C6FA",
"<X c #87D4F9",
"1X c #9AD6FA",
"2X c #90D3E7",
"3X c #A5DDEB",
"4X c #A4C3FD",
"5X c #ACC5FE",
"6X c #A2CEFC",
"7X c #ABCCFE",
"8X c #A7C9F5",
"9X c #B4CBF9",
"0X c #A4D3FC",
"qX c #ABD3FD",
"wX c #AEDBFB",
"eX c #A7D7F8",
"rX c #B6D2FD",
"tX c #B2DBFE",
"yX c #BDDAFF",
"uX c #B9D4FA",
"iX c #AAE3FC",
"pX c #B4E3FE",
"aX c #BBECFF",
"sX c #BCE5F8",
"dX c #BCFFF3",
"fX c #B6FFF3",
"gX c #B8EFEB",
"hX c #C9C9FF",
"jX c #C4DDFE",
"kX c #CCDDFD",
"lX c #C7D6F5",
"zX c #D2DDFF",
"xX c #D7D7FA",
"cX c #D8CFFF",
"vX c #CBECFF",
"bX c #C5E5FA",
"nX c #D5E2FE",
"mX c #D8EAFB",
"MX c #C9F9FA",
"NX c #D6F4FD",
"BX c #CCEDEB",
"VX c #E9E5F5",
"CX c #F2E8FC",
"ZX c #E3F2FF",
/* pixels */
"- ; 9 9 & - r r 6 6 < 9 - - - = < < 3 3 > 3 4 : 4 3 2 3 7 4 2 2 7 4 = 7 7 = 7 = 1 5 7 5 2 5 2 1 3 1 1 1 5 5 5 5 7 2 1 5 1 1 5 1 1 5 1 1 7 1 ",
"- = 9 9 & & - r 9 6 9 < - - - ; < < 3 > : 2 3 3 3 > 3 2 3 1 7 7 2 7 % ; = 7 5 5 1 1 2 5 2 7 2 1 2 2 1 7 5 5 5 7 5 5 5 1 1 5 5 1 1 1 5 1 1 1 ",
"< 6 > > - - - - 2 2 2 2 - - - - 6 4 > > > > > > > > 2 > 2 > 2 2 2 2 % % : : 1 2 1 : : : 2 > > > > > 1 1 1 1 % 5 5 5 1 1 1 1 1 1 1 7 % 7 5 1 ",
"< 6 > > - - - - 2 2 2 2 - - - - 6 2 > > > > > > > : 2 2 2 2 2 2 2 2 1 : : 1 : 1 : : 2 > 2 : > : > : 1 7 5 5 5 5 5 1 1 5 7 5 1 5 1 5 5 1 1 5 ",
"1 1 2 9 3 , , , 9 6 2 6 & $ 3 , 6 6 : : 3 : : 3 1 3 1 3 7 2 7 7 % % $ % : $ : $ $ $ % % $ 1 $ 1 1 * % 5 1 1 % 6 5 % 1 5 1 5 1 5 1 1 5 5 7 1 ",
"1 1 2 2 , , , , 2 2 6 6 $ $ $ 3 6 6 : 3 , : 1 1 1 1 1 1 1 1 5 5 1 % $ $ $ $ : $ $ % % $ : $ 1 % 1 : 1 1 1 % % 5 1 1 1 1 1 1 1 1 1 7 1 1 % 1 ",
"# # 7 = 1 7 ; 7 7 7 7 7 * 1 * * 7 ; % 7 % ; ; 5 1 7 = 7 = = = = = = $ $ $ % % % % % % = & % - & & ; % 5 1 1 % % % 5 % 7 5 1 7 1 5 1 1 1 5 5 ",
"# # 7 7 ; 1 1 * 7 7 = 7 3 * * 3 7 7 = ; % 5 % ; * ; = = = = 7 = = = & $ $ % % % % % & & % & ; ; * & % % % 1 1 % 1 % 7 1 1 1 5 1 1 1 5 1 7 1 ",
"5 5 5 5 5 5 5 5 7 7 5 5 5 5 5 5 5 5 5 5 5 5 5 7 5 5 5 5 5 1 5 5 5 5 5 5 1 5 1 1 5 5 5 5 5 1 1 1 1 1 1 1 1 1 5 1 1 5 5 1 5 5 1 1 1 7 % 1 1 7 ",
"5 5 1 5 1 5 5 5 = 7 5 5 5 5 5 5 5 5 5 1 5 5 5 5 5 5 5 5 5 7 5 5 5 5 5 5 5 1 1 5 1 1 2 7 1 1 % 1 1 % 5 5 7 5 1 1 5 1 1 1 1 1 1 5 1 5 5 5 1 1 ",
"5 5 5 5 5 5 5 5 5 5 5 5 5 5 5 5 5 5 5 5 5 5 5 % 5 1 5 5 5 5 5 5 5 5 5 1 5 1 1 5 1 5 5 5 1 5 5 % % 5 1 1 % 5 7 1 1 1 1 5 1 5 5 1 5 1 7 1 5 5 ",
"5 5 5 5 5 5 5 5 5 5 5 5 5 5 5 5 5 1 7 5 5 5 1 7 5 7 1 5 5 5 5 5 5 5 5 1 1 1 5 1 1 5 5 7 5 1 1 1 1 1 7 1 1 5 1 1 1 5 5 1 1 1 5 1 1 1 1 1 1 1 ",
"7 5 5 5 5 5 5 1 5 5 5 5 1 5 5 5 5 1 5 5 7 5 5 % 5 1 5 5 5 5 5 5 5 5 5 1 1 5 5 1 5 1 7 7 1 1 % 5 % 1 1 1 1 1 1 5 7 1 % 7 5 7 1 1 1 1 1 5 1 5 ",
"% 5 5 5 5 5 5 5 5 1 5 5 5 5 5 5 5 5 5 5 5 5 5 5 5 5 5 5 5 5 5 1 5 5 1 5 1 1 1 1 7 1 1 7 1 1 1 1 5 1 1 5 7 1 5 1 1 5 5 1 1 1 1 5 7 1 5 1 1 1 ",
"5 5 5 7 5 5 5 5 5 5 5 5 5 5 5 5 5 5 5 5 5 5 5 5 5 5 5 5 5 5 5 5 5 5 1 1 5 1 1 5 % 1 7 1 5 1 1 1 1 1 5 1 5 1 1 5 1 1 5 1 1 1 1 5 5 1 1 5 5 1 ",
"5 5 5 5 5 1 5 5 5 5 5 5 5 1 5 5 5 5 5 5 5 5 7 5 1 5 5 5 5 5 1 5 5 1 5 1 1 5 5 1 5 5 7 7 1 5 1 % % % 5 1 5 % 7 1 1 5 1 1 5 7 1 1 1 5 1 1 5 1 ",
"% % 7 7 7 7 5 7 5 7 7 7 5 7 7 5 7 7 6 = 5 7 7 5 7 7 5 5 5 5 5 5 5 5 1 5 1 1 5 1 5 1 % % % 1 1 % 1 1 5 5 1 5 1 1 1 7 1 % 1 1 % % % 1 5 5 1 5 ",
"5 5 7 7 7 7 7 5 7 5 5 7 7 7 7 5 5 7 7 7 7 5 5 7 5 7 5 5 5 5 5 5 5 5 1 1 5 5 1 1 1 5 1 1 1 % 1 1 1 % 5 1 1 7 1 5 1 1 % 1 1 % 1 5 5 % 1 1 1 1 ",
"5 5 5 7 5 7 7 5 7 7 7 7 5 7 5 7 7 5 7 7 7 7 7 7 5 7 5 5 5 5 5 5 5 5 1 5 1 5 1 5 5 1 5 1 1 % % 5 5 % 1 5 1 1 5 1 5 5 1 1 % 1 1 1 1 1 1 1 5 5 ",
"1 % 5 5 7 7 5 7 5 7 5 5 7 7 7 7 7 7 7 5 5 5 7 5 7 7 5 5 5 5 5 5 5 5 1 5 1 1 1 5 5 1 % 1 1 5 1 1 1 1 1 1 5 1 1 5 1 1 % 1 5 1 5 % 1 % 5 5 1 1 ",
"5 5 7 5 5 5 7 7 7 5 7 7 7 7 5 7 7 5 7 5 7 7 5 7 7 5 5 5 5 5 7 1 5 5 1 1 1 5 1 1 1 1 5 1 1 7 * 1 1 5 1 1 5 1 1 1 1 5 1 5 1 5 1 1 7 1 1 1 7 7 ",
"5 5 7 7 7 7 7 5 5 7 7 5 7 7 7 5 7 7 7 7 5 7 7 5 7 5 5 5 1 1 ; 7 5 5 5 1 5 1 1 5 5 1 5 1 1 1 5 1 5 1 5 1 5 1 5 1 1 1 5 5 5 1 1 5 1 1 1 5 1 7 ",
"5 7 7 7 7 5 7 5 5 7 7 7 7 7 7 7 7 5 5 7 5 7 7 7 5 7 5 5 5 5 1 7 5 5 1 5 5 1 1 5 5 1 5 5 1 7 7 7 5 5 1 5 1 1 5 5 5 1 5 5 7 5 5 5 7 1 % 7 1 1 ",
"7 7 5 7 7 7 7 7 7 5 7 7 7 7 5 7 7 7 7 7 7 7 7 5 7 7 5 5 5 5 1 1 5 5 1 1 1 1 5 1 1 1 5 5 7 7 1 7 5 5 1 1 5 1 1 1 5 1 5 5 2 5 5 5 5 7 7 1 1 7 ",
"% % % 1 1 1 3 * 1 1 3 3 4 2 3 2 6 6 * 1 % 1 1 1 1 1 1 3 1 1 3 1 1 1 = 7 7 7 7 = 7 7 7 7 7 7 7 7 7 1 : 1 1 1 % 1 1 % 1 1 5 5 5 = 5 6 % % 1 : ",
"5 % 1 1 1 3 3 3 3 3 3 4 3 6 4 7 6 3 3 3 7 7 7 7 3 3 1 1 1 1 1 1 1 1 7 7 = 7 = 7 7 % = 7 = 7 1 1 3 1 1 3 1 1 1 1 1 1 5 1 6 5 6 5 7 7 % 1 1 1 ",
"3 3 k 3 7 3 3 4 4 4 4 3 4 4 4 4 4 4 4 8 8 8 8 8 n 3 1 3 3 , , 1 : , % 5 5 5 7 5 1 5 7 1 7 1 1 1 1 1 1 1 : 1 1 1 1 1 1 7 5 5 = 5 7 7 7 7 2 3 ",
"n v v l n n n b n b l 4 4 4 q 4 8 4 8 8 8 4 c v 8 v 3 3 3 1 1 1 1 1 7 5 7 7 5 7 1 7 1 1 5 1 1 1 1 1 3 3 3 3 3 3 1 1 1 7 7 7 7 5 7 7 4 8 3 3 ",
"n n l b b n b b n n 4 4 N 4 4 l 4 4 l 3 l 3 k 4 3 v 3 3 3 3 3 3 , 1 4 4 6 3 4 4 4 4 3 2 4 3 3 2 3 3 4 3 4 3 3 3 3 3 3 3 7 7 7 8 8 7 8 c 8 8 ",
"n c v l b n b b n S b l C C q N C C 3 3 v 4 3 v l 3 v v v b l n l 4 4 q 4 n 4 4 q 4 4 4 4 4 4 4 4 4 l l k 4 4 3 3 4 c 3 8 8 8 7 7 8 8 7 8 8 ",
"8 n l l l l l d l N N N N N N N N N b l l l l l v l Z b S b Z l b b N N C C S S N C q q q q q q 4 C k 4 l 3 k 4 v k 7 k v 7 7 8 3 8 7 8 7 7 ",
"n 8 k l l l l l N l N N N l N N N N S S b S S b S b D D Z Z Z Z Z S K K K K K K K K N C C N S S S C v l v k l k v 4 v k v 8 8 8 8 c 7 c 7 7 ",
"l l B x B D B B N K G G G K _ _ J G H D H D D F D H ^ ^ ^ H ^ J ^ H J J J J J J K G J K G K A A A S n n n l l k k 3 t 3 3 k * 3 3 * * * % ; ",
"b b D W B D B V V K ' q ' ' K ' J J ^ ^ H H ^ ^ H H D H H H H ~ F D J J J J J K J K K G K K A A A A n c c n c k k k 3 3 * 3 3 * * 3 ; 1 ; 5 ",
"~ B W ^ W ^ W W J J _ ' ' ' ' ' ' ` ^ ^ W ^ ^ ^ ^ W B W F V W B V B ^ H H H G D D D H D K D A D D S c n c 3 3 k 3 3 * k * 3 * 3 1 1 % % 1 % ",
"^ ^ W ^ ^ ^ ^ W ] ` ' ' ' ' ' ' ' ' ^ ' ^ ^ ^ ^ ^ ^ W ^ ^ ^ W ^ ^ V ^ ^ ^ ^ J H H G D D A A S S n S c l k k k 3 * 1 3 * 7 7 * * * ; = % ; 1 ",
"^ ' ] ^ ] ' W ' ` ' ' ' ] ' ' ' ' ' ' _ ] ' W ] ' ' W ] ] W W W W W ^ ^ ^ ^ ~ ^ ~ D b b n n n n n n c c 7 k 7 * % * ; ; * * ; ; % = % ; ; ; ",
"] ] ( ] ] ] ] ] ' ' ` ' ` ` ` ` ' ' ` ` W W W W ^ ^ W W W W W W W W ~ W D D D D D B n n n 4 n k 8 8 7 k * * ; % * % * % * ; * ; & % ; ; * ; ",
"] ] ' ` ` ` ] ` ` ` ` _ _ ` _ ` _ _ J V g W g W g W V g g g f f V f f l l s l l x l k 3 3 3 3 1 % % 7 * 7 * ; * % % % ; = ; % = = = ; ; % = ",
"] ] W ` ` ' j ` ` ` _ _ _ _ _ _ _ _ g V W g g g g g f f f d d d d d p p , p p $ $ $ 3 3 1 7 1 % % ; ; 7 * * % % & % ; % = ; = % = = 7 ; = = ",
"~ ~ Q Q ! Q Q ! Q Q E E Y B M M M x Y D b b M l l k k l k k k t $ k ; u ; c ; u 7 u u * t * t * * * ; & = - = - = - - ; ; ; = - ; ; ; * * & ",
"E D h h h h h h E E D P P P x z x x b b b M l l k k p k k p k e e e c c c u c c c c 7 u t * * t e * - & - = - - - = ; ; - - - = ; ; ; * * * ",
"D ~ x s x s x x x x E U M M M z n x c v c k u k k t t k k t e $ t * c c c c c c c c t u t * t t * r * $ * * * e * * t t t * 7 i 7 t u k k c ",
"D M s s s s x s x x M m z z l z l t 3 t 3 3 * * t $ * * t t * k k t c c c c c c c c k i u t t t t t * t t * * t u * c c c v m m c m m M m n ",
"m M m m M m m m m m m c m c k i t u & ; * ; t t u * t * t t u u k i c c c c c c c c m c c k k k k k a a p a a z a a x x x U P P U P D M D E ",
"c c c c k c z z c m c k k t u t * * * * & ; & u * u t u t c c c m m m m m m m m m m m M m m m M z z x x x x x P P x Y T P Y Y Y Y Y ~ ~ ~ ~ ",
"= ; u u u u u u u u u u ; u ; - & - - & & u u r u t u i c c m M M M Y Y Y Y Y Y Y Y Y Y T P P Y P P I P I I P Q E E Q T Q Q / / T ( ( ( ( ^ ",
"- - & - - * - - - - - u u - & * & & & & - - u u u i c i m z M Y Y M ~ ~ ~ ~ ~ T Y ~ T ~ ~ ~ Y T T P Q Q Q / / / / / / / / / / / ( ( ^ ( ( ;.",
"- - - - - - - - & & r - - - & t * w r r t t i i z m z U P T Y ~ ~ ~ ( ( ! ( ( ( ;.;.! ( ;.=.=.! ! =.;.;.( ;.;.( ( =.( ! ! ! ! ! ! Q =.=.6.6.",
"- - - - - - - - - - u u r r r u r t t i i i m m U Y Y Y ~ ~ ~ ( ;.( ( ( 9.( 9.9.9.9.9.9.9.9.6.0.6.9.9.9.9.9.;.;.9.;.( 9.9.9.;.;.;.;.6.7.6.6.",
"& & & - - - r - w r i y y y y y z y L L R P T T I / -.( ;.;.6.0.q.q.r.r.7.r.p.p.p.r.p.p.p.p.p.p.p.p.q.q.q.7.7.7.7.7.7.q.q.q.7.7.7.7.8.8.8.8.",
"& & & & w - - r r i i i z z L m U U T T T -.-.-.;.;.;.9.9.9.q.y.q.y.s.s.s.f.s.g.f.f.f.f.f.f.f.f.f.f.s.s.s.e.e.e.e.e.s.s.e.s.s.s.s.s.d.p.p.p.",
"w w & w & r y y y y L U R R I I I -./ Q *.*.=.:.:.w.w.8.8.i.p.p.f.f.j.a.a.l.j.j.j.j.C.C.C.C.C.C.j.C.k.k.k.j.j.j.j.j.k.k.k.k.k.j.k.j.f.f.a.a.",
"w w r r r i i i U U R R I &.-.-.>.:.>.>.:.:.0.0.y.0.s.i.g.d.f.f.b.f.C.A.A.A.A.A.A.A.D.H.D.D.H.D.D.H.D.D.A.A.A.A.k.A.D.A.D.D.A.A.A.A.Z.Z.b.b.",
"w w & r i y U U R I &.&.&.-.*.>.:.:.t.0.i.t.i.u.u.d.f.f.b.Z.C.S.A.A.G.G.L.L.G.P.G.P.P.P.Y.P.L.P.P.Y.P.P.P.P.L.P.P.L.L.L.G.L.L.L.H.L.J.S.S.S.",
"w w w r y U R R R T -.&.*.-.:.,.,.:.u.u.u.u.d.v.f.v.b.Z.F.S.D.D.G.G.P.P.P.P.P.P.U.U.{.{.{.{.{.{.{.{.{.{.{.{.P.{.P.{.P.P.P.P.P.P.P.P.J.J.D.A.",
"e e m m h j #.#.*.*.5.5.:.:.2.2.z.z.u.z.f.b.C.Z.F.F.K.J.K.K.Y.Q.{.{. X X|.XXXXXXXXXX4X X4X X7X.XXXoX,X X|.,X|.|.XX|.|.|.}.}.{.Y.I.I.V.[.V.V.",
") L Y T j =.%.%.:.,.p.i.0.t.h.h.c.c.n.v.b.S.A.A.J.J.K.I.Q.Q.!.=X-X-X6X,X4X4X5X5X5X5X7X7XqX7X7X7X9X9X>X1X1X,X7X4X5XXX4X,X>X-X=X=XQ.I.[.[.Y.V.",
"&.&.=.=.%.%.w.8.,.t.z.z.l.l.T.x.A.A.B.B.V.V.V.}.}.}.:X2X:X,X,X8X8X5X9X9X9X9X7XrXwXwX1XeX1XiX1XeX9X8XhXhXhXoX7X8X1X2X*X*X8X*X4XXXXXXXU.!.:XY.",
"-.<.0.8.<.1.i.d.u.c.n.n.H.H.x.B.D.L.B.K.I.Q.=X=X-X=X>X>X1X1X8XeXrXrXyXyXjXjXyXjXpXpXiXiXiXiXiXpXbXpXcXcXkXhXpXqXiX1X1X*X1X1X7X4XoXoX=X=X=XY.",
",.,.1.t.1.1.d.f.v.v.S.n.3.3.B.V.P.{.Y.^.}.:X X,X8X8X8XeX9XuXuXlXcXlXgXgXbXBXlXlXzXzXzXkXkXzXnXzXzXxXbXpXpXtXpXwXsX3X3X3X*X*X>X>X;X;X/./.~.~.",
"1.,.u.c.1.m.Z.Z.n.M.J.J.3.[.I.Q.{.=X^.<X:X;X6X7XeX7XtXuXyXjXlXnXxXxXBXBXbXbXnXnXxXxXmXnXkXmXnXnXxXnXaXaXaXpXpXwX3X3X3X3X3X*X1X1X;X;X<X/.~.~.",
"[ [ m.m.x.x.M.M.4.3.I.U.W.W.-X-X<X:X1X1X7X0X9XyXyXyXbXjXvXbXvXmXmXmXBXBXVXVXVXVXCXVXmXmX%XMX$X$XO.$XBXvXbXsXwXvXsXtXwXwX3XeXeX1X8X0X~./.R.R.",
"[ [ m.m.B.x.M.M.).).U.!.(.(.>X>X1X<X0X0XqXtXyXjXjXkXvXvXvXvXNXNXZXVXVXBXVXVXCXCXCXCX#X#X .%X..o.X o.'.#X@X@XOXvXbXtXtXwXuXeXeXeX6X0X(.~.R.R.",
"|   $.`.E.4.W.M.X } O.O._._.2X+X$X$XaXsXkXbXnXmXNXmXNXMXdXdXMXMX&X&Xo.].gX%XdX%XfXfX} { { X.O . O O . O . X.| +XiXfXiX+X$XR.+.} +.+.@ @ + + "
};
