/* XPM */
static char *_44a821ef8674b9dcfaa2d82d898d976ALFcNdA95YyJquCN[] = {
/* columns rows colors chars-per-pixel */
"70 65 256 2 ",
"   c #060407",
".  c #18030B",
"X  c #180515",
"o  c #0F0E14",
"O  c #270009",
"+  c #36020A",
"@  c #280218",
"#  c #37031A",
"$  c #2C151B",
"%  c #090238",
"&  c #15082E",
"*  c #290725",
"=  c #380426",
"-  c #391628",
";  c #311032",
":  c #2F2931",
">  c #15341F",
",  c #47041A",
"<  c #560317",
"1  c #4A070D",
"2  c #6D0416",
"3  c #470327",
"4  c #55042A",
"5  c #4A0636",
"6  c #580738",
"7  c #491836",
"8  c #581538",
"9  c #4C1627",
"0  c #680326",
"q  c #650538",
"w  c #651839",
"e  c #740C34",
"r  c #512A39",
"t  c #702634",
"y  c #155631",
"u  c #110C4E",
"i  c #2E0E4F",
"p  c #322850",
"a  c #0B116E",
"s  c #290F67",
"d  c #0E2A73",
"f  c #342E73",
"g  c #133250",
"h  c #5B0946",
"j  c #591546",
"k  c #511049",
"l  c #650A47",
"z  c #671648",
"x  c #761A4A",
"c  c #691855",
"v  c #751958",
"b  c #6E0B53",
"n  c #542C4A",
"m  c #692749",
"M  c #762749",
"N  c #692756",
"B  c #772659",
"V  c #763558",
"C  c #6D3653",
"Z  c #6E1766",
"A  c #48346B",
"S  c #792865",
"D  c #7A3868",
"F  c #753071",
"G  c #53106B",
"H  c #2D4E78",
"J  c #32776C",
"K  c #286157",
"L  c #754C6C",
"P  c #5D615F",
"I  c #8D0633",
"U  c #8B164E",
"Y  c #85295A",
"T  c #853859",
"R  c #8E2F4F",
"E  c #8E1A67",
"W  c #872A69",
"Q  c #89376A",
"!  c #8A3876",
"~  c #953A75",
"^  c #912F70",
"/  c #A93473",
"(  c #A81257",
")  c #8A4579",
"_  c #964578",
"`  c #8E4E6E",
"'  c #A84D76",
"]  c #975D67",
"[  c #CA2364",
"{  c #748725",
"}  c #06AC54",
"|  c #0C936E",
" . c #2F9376",
".. c #11AD6A",
"X. c #219A5D",
"o. c #54976F",
"O. c #76B06F",
"+. c #5A9A62",
"@. c #18C969",
"#. c #45E77A",
"$. c #93AA6E",
"%. c #9A9764",
"&. c #C1AC73",
"*. c #06178A",
"=. c #123090",
"-. c #2B3694",
";. c #1337AC",
":. c #2839AC",
">. c #231290",
",. c #512C92",
"<. c #174793",
"1. c #2E4F93",
"2. c #337095",
"3. c #144BA8",
"4. c #2848A9",
"5. c #3252AF",
"6. c #3464B5",
"7. c #166DA5",
"8. c #4D5190",
"9. c #4B6D95",
"0. c #4557B1",
"q. c #4668AA",
"w. c #4F71B1",
"e. c #6B78B3",
"r. c #6962A0",
"t. c #003AC3",
"y. c #0E4AD1",
"u. c #3354CB",
"i. c #2E6FD4",
"p. c #175BEA",
"a. c #1C5DFF",
"s. c #175CFA",
"d. c #0C56F1",
"f. c #215DFF",
"g. c #1965EA",
"h. c #1B62F5",
"j. c #1562FF",
"k. c #1C63FD",
"l. c #1B69FD",
"z. c #1F70E3",
"x. c #2668E9",
"c. c #2264FC",
"v. c #246BFE",
"b. c #2B6DFC",
"n. c #2867F7",
"m. c #346BFB",
"M. c #2C72FE",
"N. c #2876FC",
"B. c #3374FE",
"V. c #3978FE",
"C. c #336DE8",
"Z. c #1B65DC",
"A. c #4759C6",
"S. c #5978D8",
"D. c #4F6ECB",
"F. c #6576CB",
"G. c #4A76EE",
"H. c #6373E8",
"J. c #4D54E2",
"K. c #9A3B84",
"L. c #8A358A",
"P. c #A63A88",
"I. c #9E3FB7",
"U. c #984787",
"Y. c #9A5586",
"T. c #954E94",
"R. c #A54788",
"E. c #A75588",
"W. c #A85897",
"Q. c #B65A98",
"!. c #B14F91",
"~. c #AB6699",
"^. c #B86599",
"/. c #AF6D8F",
"(. c #AA5AA7",
"). c #B85CA5",
"_. c #AB53AE",
"`. c #AA66A6",
"'. c #B668A8",
"]. c #BA77A9",
"[. c #B769B7",
"{. c #B874B6",
"}. c #AB6EAF",
"|. c #95659D",
" X c #C65091",
".X c #C57098",
"XX c #C559AE",
"oX c #C668A9",
"OX c #C96AB4",
"+X c #C777B7",
"@X c #D677B8",
"#X c #CF72AE",
"$X c #EB77BA",
"%X c #BC75C1",
"&X c #B051C9",
"*X c #CE79C7",
"=X c #E67CC7",
"-X c #C85BC4",
";X c #ED3686",
":X c #08B08B",
">X c #269898",
",X c #49908A",
"<X c #698E8E",
"1X c #50AC8C",
"2X c #5789B0",
"3X c #6689B9",
"4X c #6E95B0",
"5X c #62B1A6",
"6X c #1ED797",
"7X c #1C92DE",
"8X c #5687CB",
"9X c #6685C6",
"0X c #6F90D1",
"qX c #79A5CB",
"wX c #4C86FA",
"eX c #728FEB",
"rX c #7DA4E6",
"tX c #62D4C6",
"yX c #B786B2",
"uX c #8BADB0",
"iX c #9A939E",
"pX c #CD86B6",
"aX c #DF97A9",
"sX c #E1C593",
"dX c #8596CC",
"fX c #8DADD4",
"gX c #8FADF2",
"hX c #A2BAFA",
"jX c #9898E4",
"kX c #CB87C6",
"lX c #D788C8",
"zX c #D98AD7",
"xX c #DA95D6",
"cX c #D091CD",
"vX c #E985CA",
"bX c #E797D9",
"nX c #EF90D3",
"mX c #D7A8D5",
"MX c #EAA8DA",
"NX c #EF97E9",
"BX c #E9A5E5",
"VX c #F8ABE8",
"CX c #FBB5E9",
"ZX c #F8A9F7",
"AX c #FCB8FB",
"SX c #EDB4EC",
"DX c #D79EEB",
"FX c #9CC8EE",
"GX c #A8C8FC",
"HX c #AED5F9",
"JX c #A8D2E7",
"KX c #FEC6FC",
"LX c #F4CBF8",
"PX c #CAEBFF",
"IX c #CDD3FB",
"UX c #A4D88D",
/* pixels */
"s.s.s.s.s.c.p.g.k.s.M.B.s.s.p.g.s.s.s.s.s.s.s.j.g.p.a.a.x.h.a.a.s.h.a.j.a.c.h.f.c.c.f.c.c.c.c.c.c.c.c.c.c.c.v.c.v.v.c.v.c.c.f.c.c.c.c.c.f.m.",
"j.j.j.j.p.n.Z.x.p.p.f.f.a.a.s.s.f.f.a.a.a.a.a.a.h.k.a.a.s.a.a.a.a.a.a.a.k.k.c.k.k.c.k.k.a.k.k.c.c.c.c.c.v.k.c.c.c.c.k.c.c.k.k.c.k.k.a.k.x.h.",
"l.j.j.l.x.n.i.C.c.c.f.f.f.f.c.n.f.f.c.c.k.k.k.a.c.h.a.f.j.k.a.a.a.a.a.a.a.k.a.k.c.k.k.c.k.k.c.k.k.c.k.c.k.c.k.k.c.k.k.k.k.k.a.k.j.k.j.j.p.p.",
"v.v.N.l.i.Z.V.p.m.c.x.x.n.m.f.n.f.n.C.C.n.h.c.n.c.k.c.k.j.a.a.k.k.k.s.k.k.k.h.k.l.k.k.k.k.k.k.k.k.k.k.k.j.j.k.l.j.k.l.j.s.j.s.j.j.s.j.j.p.g.",
"v.b.b.b.i.3.C.t.m.m.V.V.m.v.m.n.n.n.x.C.x.n.v.n.h.v.a.c.k.a.j.k.j.j.j.l.k.k.k.k.k.k.k.k.k.j.k.k.k.k.l.k.j.j.j.j.j.j.l.j.j.j.j.j.j.j.s.j.g.p.",
"G.C.m.G.i.Z.p.y.y.C.C.u.*.G.C.G.wXi.5.6.N.x.z.C.N.b.z.i.l.p.z.Z.g.l.p.g.p.j.h.k.k.k.k.h.c.j.b.v.l.b.p.s.l.l.l.l.l.l.l.l.l.l.j.d.d.d.j.s.d.k.",
"m.C.G.m.G.G.Z.eXy.y.G.x.*.3.C.C.u.6.8X8Xy.Z.x.z.x.b.z.z.v.n.z.g.h.h.g.g.c.v.b.v.l.c.l.b.k.k.v.v.c.v.s.k.l.l.j.l.l.j.s.j.N.j.j.j.l.l.j.j.j.j.",
"=.S.G.G.G.G.G.wXS.*.m.G.3.a =.:.2X9XD.1.s.b.B.m.b.M.M.v.v.M.h.N.N.h.N.h.v.v.v.c.c.c.k.k.p.g.N.h.h.h.p.h.k.v.h.h.v.h.p.l.h.h.l.v.b.h.g.k.v.a.",
"D.4.*.G.m.G.G.C.6.u.;.G.G.4.<.D.0X2XD.d N.M.m.b.B.B.b.c.v.N.N.N.N.N.N.l.l.v.v.b.b.v.v.n.v.n.v.v.l.b.l.b.h.N.h.k.N.v.h.N.n.l.N.N.N.N.M.b.b.v.",
"8X9X<.-.J.G.D.3.1.D.;.C.1.5.D.rX0XF.6.-.V.b.f.c.C.N.b.m.z.i.v.l.z.z.z.z.g.n.b.b.n.h.N.M.n.n.h.n.n.b.b.v.b.V.M.n.B.B.b.b.n.n.x.n.N.B.M.n.m.B.",
"6.e.F.0.u.i.G.u.2.w.i.;.5.D.8XD.0X0X*.0.B.V.V.B.C.N.B.V.7Xi.N.N.C.7Xg.z.V.N.n.v.M.B.B.B.N.b.n.n.M.b.B.N.V.V.V.V.M.M.M.m.n.M.M.M.n.n.x.b.m.m.",
"5.4.D.G.4.5.:.m.4.D.5.=.9.gXgXH.gXS.a *.6.i.V.M.>X>XB.b. . .wX7X>X>X7X>XB.V.V.V.V.M.b.n.n.V.B.B.b.x.V.wXV.x.b.G.V.m.V.V.V.b.M.G.wXm.x.N.C.C.",
"eX5.=.J.8Xu.;.;.5.5.;.5.qX9Xu.u.-.=.D.=.=.7.h.p.2.>XV.d.X. .z.z. . .>X7.t.p.G.V.p.;.t.y.y.h.c.n.y.y.g.M.m.y.p.wXV.n.G.wXV.y.;.n.wXn.y.y.y.3.",
"5.u.H.:.u.D.4.4.=.6.A.0.S.=.<.w.gX9X1.d q.2X2X3XP 8.3.6.r.8.8X8X-.5.3.u.:.A.H.0.1.q.w.e.H 1.2.9.D.9X6.6.4.6.S.u.D.F.5.0.4.0.1.6.S.-.4.eXdX8.",
":.A.H.D.4.u.:.A.5.H.H.:.<.5.5.q.HXHX0Xe.GXHXPXtX9.g 7.7.e.8.7.8Xe.F.u.S.jXA.=.5.0.F.FXHX2Xw.0XgXgXGXD.1.5.H.D.4.F.5.5.w.5.eX9Xd =.D.6.0XIXhX",
"e.J d q.1.w.gX1.-.F.F.0X1.9X0X6.3XhXGX9XfXJXgXdXe.3XfX4X0.F.5.eXgXjX4.S.GXFX9.4X9Xw.fXGX0XdXhXfXhXdX9.9.D.=.1.q.:.jX9X8.-.dXH.D.q.3XF.S.0XhX",
"IXJXrXw.1.FXgX<.q.1.0.F.0Xq.0XgX9X9XjXGXuXuXw.eXw.jXJXPXIX-.0XhXF.-.D.D.5XJXFXFXfX3XrXrX9XhXPXgXdX2X<XgXPXgXe.1.A.PX9X-.r.1.A.jXw.w.gXeXq.rX",
"4XfXw.2.HXFX1.9.hXGXjXHXq.w.8Xq.1.<.5.PXH.0.8.w.D.H.fXGXHXhXfXw.*.F.<XfXJXfXFXqX3Xw.2.9.6.GXHXPX8XgXhXgXFX8X2.9XPX3XH 3XPXqXgXrX1.2X3X3X<.-.",
"JXqX8X<.2X2X2X4X3XGXrXHX1.w.eX8Xw.<.u gX5.d 9.8.S.hXPXfXdX3XfXuXS.eXuXPXFX2XdX4X2Xw.2.H H PX0XgXrX2X1.gXgX3Xq.2.e.9.3X4X3XGXFXqX1.0X2Xq.D.=.",
"eXG.q.a <.rXgX5.*.eXgX0.3.D.G.3.4.G.;.:.*.;.D.=.6.eXgX6.0.5.4XPX9.dX8XrXhXF.H.gX0Xq.5.=.w.gXS.0Xu.*.5.S.gXw.=.*.1.gXS.=.:.hXF.w.;.H.A.=.5.w.",
"5.4.d d u d hXa *.-.4.;.a 3.4.*.*.:.*.*.:.S.u.a H.4.1.1.=.=.H GXH 9.6.qXgX0.-.jX6.a 0.1.0.D.-.D.3.5.6.4.6.<.*.a a w.gXa a 4.4.=.*.A.=.a =.<.",
"0.>.  & % 8.8.u u u i i u % % u i u u i -.0.=.u A e.;.a >.*.a eX8.a >.J.hXa =.D.=.:.H.:.:.0.>.-.s u 8.r.f u % & u 8.A % % p s u % & a f d a ",
",.>.; ; f 8.f s A i % i u % u u u u u & f 1.d a s f ;.*.a >.*.A.s a *.y.9X=.-.0.*.=.:.>.>.*.a >.a s f f f u A p f 8.i p A p s s u % s s a u ",
"Z h ~ S N j 8 ! ' _ C ` + + + # + 9 4 < ; ; ; p c k s u , 6 ,.-.s G i i q.1.d d u s u u % & X k N L ) N S F (.T.Z Z S L._.Z Z h G * Z G 3 3 ",
"L.! #XQ.j k ) #X.X^./.' 3 + + 9 1 < w t 5 * & r.!.F f s B M ,.s s G i * 1.0.u u u u u u & & * i ! pXxX{.(.*XzX`.G b W.*XzX).L.Z F Z L.F z Y ",
"@XXX-X-XI.L.NXZX=X[.=XoXh = h l c c ~ R.M 1 ; T.=X$X` ` ' ~ V * < I 4 1 s 8.% % ; ; O $ 1 + , , ~ MXAXZXpX#X+X).R ' aXAXCX$X` w '.vXE.w T ' ",
"vX@X-X-X_.%XAXZX=XvXAXzXv h b k Z ~ *XOX' w i T.nXCXiX/.^  XY.5 t R t 9 u f p u r X 1 r 1 , , 9 ! MXAXNX.X#X+XOX' aXKXKXvXQ.R R bXKX/.Q .X.X",
"pX~.*X[.].mXAXpXpXCXLXoXL 5 i n ) +XBXzX_.Z , Q bXZXnX)._.DX.XB K.L.k z l h Y U T 9 m T 3 9 = 8 L bXSXkX%XxXxX{.*XZXKXcX' S F ~.CXCX{.cXMXQ.",
"` V ZX%XDXLXMXpXVXKXnX/.L 3 = U.`.MXZXzX_.Z @ M -XZXNX!.-XZXoX` W.L.c K.b x E._ ' T T M + 4 @ 7 S pXmX}.%X}.ZX|.zXKXVX*XU.j ,.nXSX].{.AXbXQ ",
").*XVX{.ZXKXbXOXmXLXaXE.j = v ' cXKXNXzX|.N X C R.CXnXP.DXDXT.`.^ v L.W.~ ~ bX+X[.(.U.R.z w O , C pXnX@XDXZXkXkXCXCXpX^.Y.h R.AX*XT.cXbX' Y ",
"XXNXNX*XAXAXzX+XmXmX.X' * = ~ #XBXDXzXzX+XL @ k U.pX@XXXSXAX}.kXL.^ `.VXoXoXbX`.[.[.^ R.T w O # C /.nX=X`.%X].CXAXlXE._ B b *XNXU.T.kX}.E U ",
"XX=X'.lXAXxXOX{.MXaX^.T @ = ~ oXBXcXNXzXpXC @ = W '.@X#XSXKX+XkX^ P.lXKXVXnXbX'.*X*X! @X' m O @ 8 Y.=XOX{.*XBXKXKX#XY.v c ! lX[.~ '.'.! v v ",
"OX).~.bXAXzX[.).pXpX_ q # j E.oXxXkX-X_..Xn @ = l E.lX XKXBXkXxXK.K.CXKXAXnX@XlXNX-XW.ZX.XV O O = ` =XOX[.%XBXAXnX~.Q.B S '.).K.W.'.! S W b ",
"OXXX}.bXBXkX^.~ yX^.Q , @ 8 Q.oX{.kX+X*XyXj @ @ 3 Y oXoXKXkXpXMXL.W VXAXnX.X'.bX*XT.@XZX.XM # . @ V OXoX`.[.BXAX+X_ E.! B W.! S ! v z N c c ",
"_.XX].xX+X[.U.S ` Y.Y # 5 C oXoXW.W.).bX/.n @ * z z W XXmXpX}.kXE R.VXxXvXQ.W.zX).! nXNX/.w $ O = n !.OX*XNXAXBXE.B Q Q S ! Z W c 6 B z l S ",
"P.P.~.pXoX~.S h V V 4 # 3 B Q.Q.W.U.).+X` r # j ~ B z Q ~.cX`.~.S '.VXnX@X!.U.*X_.S lXOXT 4 - + # = ! oX).ZXMX'.B z v B v c l v z l T M T T ",
"E E U.U.W._ l h c h # 4 8 ) Q._ ^ c W.(.V 9 # C Y.' B h F {.W.D ! R.bXVX.XW ! lXOXZ ).K.8 , - O @ = ^ ).`.zX'.U.V l 5 c h h h b x c T ` V w ",
"P.L.V U.N q 5 3 6 3 z h v W ^.Y.v h W v 8 @ 3 8 Q ^.E.B k S S S W.Y.^.#X/ Y S U.[.F W b 3 4 - + @ = b Q.[.W.! Q x 6 6 6 c S S S z _ Q x , 4 ",
"Q.P.D W._ N j h h z Q Y.v 3 j S W b h = @ . + T ^.pX].U.z h j ) Y.`.Q v ~ v L.'._.U.K.S 3 4 - $ = m K.).'.U.S S z 8 6 6 3 h B S 8 6 x M M w ",
"!.W j ` /._ V N 4 8 ) pX~ 6 j ) E._ B 5 @ @ 3 E.pX+XY.S S W.W.'.MXSXR.R.~ _ {.{.T.`.oX^ 8 8 9 @ 8 L !.)._ z 8 8 8 6 5 5 5 N ! F B 6 x ` W._ ",
"P.b # z _ ` N 5 # 6 ].SXR.x 5 c ~ Q.) j @ @ 8 ].vX/.V S ^.nXkX'.SXKX=XW.B #XlX`.W.NXNXQ.M 9 = O C Y.OXOXS 6 3 3 5 3 3 5 N +XVXpX_ 8 6 M W.Q.",
"/ b 3 3 m M 3 O , M MXmXQ.^ 7 k M Q.' B @ @ Q @XxXE.F ~.NXAX'.U.mXAXOX^ ) VXcX`.cXDXVX'.M 4 # # L .XvX=XV 3 + # + # = m ].KXKXlX) z 3 q L.!.",
"W b 6 3 4 4 @ @ e E.LXyX!.^ 7 k z ~ Q M = * E.vXlXY.W.BXKXNX'.lX`.xX@Xv pXKXcXcXAXzX*XE.8 4 9 @ N pX=X!.V 6 9 + + @ 5 ` KXKXkX'.U.B 4 6 b P.",
"v b M j 3 + # n /.nXLX`.Q.W = 5 x Q m 3 * - ' nX+XU.yXKXVX=X'.'.T.kX).!.VXMXkXLXZXkX#XU.8 4 # O 8 ' !.E t w M r 3 # 8 yXCXMXkX{.E.j , 6 6 P.",
"b b ` ` 8 # m ] $XVXpX` ~ v ; = 4 h 4 @ X = _ nXE.Q pXLXZXvX[.! |.SX[.OXKXcXkXLXcX%X'.W 8 4 # + 9 ` P.E q z ` V w 3 r pXMXkX`.U.) 8 6 N q ~ ",
"U ^ /.].S 5 N W.aX@X' ' Y 4 X . * = l h + O T aX X/ yXSX$X$XvXS ).VX|.IXAXlXZXAX}.`.W x # # o   X L ! c b P.yXyXR.v L._.DX[._ Q 8 # U W h ! ",
"4 4 j L W h c ) E.' R U < , O ; n F R.^ 9 1 M /./ !.mXKX$X XR.l R.vXiXIXlX*XZXbX{.W.B q # 9 . . X L W z E XXcXyXOX! L.I.(.I.D z 4 8 E q h K.",
"h z 3 5 k = z B ` Q n -     # 5 Y _ !.' r + q ^.`.'.IXLX}.) S = F +X=XZXOXnXnXOX[.U.x 6 w 4 o . 3 T E l U.lXmX{.].U.q R ~ R x 4 o p U e b K.",
"_ ) z 6 = X 3 q w 6 @ . X $ = = q Y ~ B 8 + , W W.`.IXLXT.F n = v '.NXZXOXnXOX!.'.W q 4 M 6 . . , B x b ).nXxX{.Y.U.< x Y e , < & : e l E P.",
"CX@X_ x - . . X @ . 4 4 Y Y r @ # 7 R t $ o & : F W.nXOXL F ; * 3 ` @XpXQ.+XR.P.U.c < q T 4 . . 3 j b E pXcXxX*XT.L t 2 I 2 X n ^ W 8 7 / ' ",
"nXvX#X~ : $   X O @ Y E..X^.L - @ # t w     X $ N F ).K.D j $ . 3 z ' E.Q _ W ! B 6 4 U M 3 O @ 3 6 b / bXcXzX*X`.) R < 2 2 L r.nX$XL n R R ",
"oX#XY.6 . o . . @ 5 !.$XvX=XE.v @ @ 9 + + O     4 6 Y Q t 0 o . 1 0 T C 7 n C C 5 = 4 m - $ # @ * ; c W.MXzX*X[.}.F T 6 $ n Q.Q.nXlXE.V U.v ",
" X~ l 5 . $ @ X # z OXnXvXvX^.` 7 = $ O + O o o 3 4 6 6 4 q : o 1 < 8 1 * 7 N j = , 6 4 . $ - # ; ; S W.lXbX_.[.L.c v h p C W.W +X*X/.D !.b ",
"N S 4 6 V m z # h Y.zXBX+X{.Y.v 8 3 O # + O   X b W h h I ( V 7 O O o   O # o o 0 0   X O = 7 - * X h W.XXnX@XP.1.8.F.a _.,.H 2.Q.oX/ E P.b ",
"k = l  X] w , 4 j W.kX[.}.}.U.h 5 3 + = + O X : ^ Q.!.K.[ ;XE.T r $     O . o o 0 0 & ; + 9 9 9 * * 5 ! OXXXP.P.f u jX}.Z &Xw.H ).Q./ E ^ b ",
"p L #X!.` 0 # 6 5 ! '.Q.U.E.! h = 3 @ $ x 1 0 E |.%XkX|.=X=X@XQ.n * # = . O 4 w w q e x   $ R ( $ @ 4 x (.*X XE i k ;.wX3.i.Z U.E._ v ~ t , ",
"iXmXvXY q + , 8 5 S W.! W ! B 6 3 = X = Y 4 q E }.cXDXDX=XXX#XE.n o = 3 . $ T ' ' ' R U   : U R $ * q Y `.Y.E E i G =.D.Z.6.T.G _ _ b W t 1 ",
"kXpXY.8 9 O r C 7 7 _ m W Y w 3 # # . - r r x w |.zXSXDXXXOX.XQ ; X * C $ $ C /. X/ C - 1 M r r 0 0 # M U / n p % % 3XdXH dXg 8.Q j 4 x 9 # ",
"yX/.C @ O 3 8 V ` 7 w V U z 4 , # # $ r P %.~ w ,.^.[.T.XXnX_ q * @ - ].P $ # r ^ I ; @ 4 t C ` e 0 8 9 / U ; & % f dXd u q.4Xg 3 3 4 x @ # ",
";X/ &   2 I > X.5XK < e 0 0 o   o : 2 ( +.$.P K I ( M q 0 Q , . < 2 > $.O.P e 4 ; ; 3 3 r n %.iXR 0 r - r 9 @ = n D > J o.> k c ; ; , 1 1 2 ",
"e I o o I I P 5X<XJ t 1 2 0 o   o : I [ +.O.+.P I I 0 4 3 # # . 2 2 +.iXuXuX/ 0 O - w j n ] P L ' e 9 r - O @ = c h  .<X5Xg ; * . X + + < I ",
"h 5 l E g 2.@.6X@.} P $ 3 3 < 0 8 w ..:XX... .,XJ > y X.> g I U r P :X6X#.#.>Xy > > p p } @.6X| X.} w 1 w 8 w t y o.6X6X6X..r 9 1 1 4 e W S ",
"S b ( P.o.<X@.} } @.P P 6 z U x w Q :X:XX.X. .| P +.+.#.uX<X( ( P P | | } @.6X5XO.O.iXr.} } | :X} X.' R n w w w J <X..| } ..] r 2 R R U E E ",
",X2.} K X.X.] ] %.%.o.X.K g P K } } P %.&.sXsX%. . .2.2.1X1X..} X.+.%.{ o.,X{ { 7X7X+.O.o. .iXiX%.%.1X .:X7X1X1XO.O.<X<X4X<XX.y K y <.7.} } ",
"5X9.} ..+.#.&.aX%.] X. .<XO.<X<X..| +.&.&.sXsX&.,XJ 2.5X>X .} } +.O.$.UXuX5X{ { 7X7XO.UX#.1XiXjX$.$.5X1X>X7.X.#.O.O.4XP fX5X+.X.+.o.2X8X} } "
};
