/* XPM */
static char *_3c7e2f16600408df96766f9ea287463uQ0tolE2AZKTxau7[] = {
/* columns rows colors chars-per-pixel */
"70 65 244 2 ",
"   c None",
".  c #020201",
"X  c #060C01",
"o  c #07080A",
"O  c #1B0202",
"+  c #0B1601",
"@  c #040918",
"#  c #14190E",
"$  c #2A0102",
"%  c #370302",
"&  c #33140B",
"*  c #152801",
"=  c #1A3501",
"-  c #1C3B00",
";  c #0F2000",
":  c #081538",
">  c #050F2C",
",  c #182C2E",
"<  c #343539",
"1  c #273302",
"2  c #490303",
"3  c #591006",
"4  c #670000",
"5  c #790404",
"6  c #7E1010",
"7  c #1F4107",
"8  c #234800",
"9  c #295500",
"0  c #2B5A00",
"q  c #354400",
"w  c #2F6100",
"e  c #326800",
"r  c #316600",
"t  c #3A7900",
"y  c #475900",
"u  c #597200",
"i  c #4F6500",
"p  c #081949",
"a  c #0A1A4D",
"s  c #162D57",
"d  c #132D6B",
"f  c #122A56",
"g  c #1E4451",
"h  c #31516A",
"j  c #565C67",
"k  c #8D0A0A",
"l  c #AB0000",
"z  c #B60000",
"x  c #BC1818",
"c  c #B61717",
"v  c #AE1616",
"b  c #C70000",
"n  c #D40000",
"m  c #E80000",
"M  c #FF0000",
"N  c #F30000",
"B  c #3F8300",
"V  c #428800",
"C  c #4C9E00",
"Z  c #489500",
"A  c #749601",
"S  c #30B06D",
"D  c #208575",
"F  c #40A27C",
"G  c #3FC07F",
"H  c #4FC973",
"J  c #7CF876",
"K  c #89AF03",
"L  c #9BC800",
"P  c #A6D500",
"I  c #B5E900",
"U  c #B5E900",
"Y  c #C6FF00",
"T  c #C0F700",
"R  c #83F176",
"E  c #13348C",
"W  c #163CA5",
"Q  c #001D89",
"!  c #3C5C86",
"~  c #294FB7",
"^  c #2A58B6",
"/  c #51739C",
"(  c #5471A4",
")  c #0033F3",
"_  c #002AC8",
"`  c #1C48CF",
"'  c #2659D9",
"]  c #1F55EB",
"[  c #1D56F4",
"{  c #145CF6",
"}  c #1D5BF6",
"|  c #1D57FB",
" . c #155CFB",
".. c #1C5AF9",
"X. c #2255EE",
"o. c #2857EE",
"O. c #225AEE",
"+. c #2554E6",
"@. c #2157F6",
"#. c #2A55F3",
"$. c #235BF5",
"%. c #2A5CF6",
"&. c #2157F8",
"*. c #2057F8",
"=. c #2256F9",
"-. c #2255FC",
";. c #2B52FB",
":. c #2258F9",
">. c #2258F8",
",. c #2158FA",
"<. c #255DF9",
"1. c #295EFA",
"2. c #3051F5",
"3. c #304FFF",
"4. c #1264EB",
"5. c #1562F4",
"6. c #1C62F6",
"7. c #1C6AF3",
"8. c #1C62FA",
"9. c #1C67F9",
"0. c #296BEE",
"q. c #356AEC",
"w. c #3478EC",
"e. c #2462F5",
"r. c #2B63F4",
"t. c #296DF4",
"y. c #2465FA",
"u. c #2C63FA",
"i. c #246BFB",
"p. c #2C6CFB",
"a. c #246BF7",
"s. c #396EF1",
"d. c #336CFB",
"f. c #396EFC",
"g. c #3168F8",
"h. c #2D71F6",
"j. c #2C74FC",
"k. c #2C7BFB",
"l. c #2675F7",
"z. c #3D72F5",
"x. c #3372FF",
"c. c #3E73FA",
"v. c #347CFA",
"b. c #3A7CFB",
"n. c #3479F4",
"m. c #2270EF",
"M. c #406FF1",
"N. c #4173F4",
"B. c #4275F9",
"V. c #4279F9",
"C. c #627BDA",
"Z. c #3DAABE",
"A. c #3DB683",
"S. c #51B186",
"D. c #6DB9AA",
"F. c #66A4A1",
"G. c #3EC18D",
"H. c #72CDB6",
"J. c #56ECAC",
"K. c #51CF8F",
"L. c #1E8DDE",
"P. c #2D81F6",
"I. c #3B83FC",
"U. c #3887F9",
"Y. c #3A97F9",
"T. c #2A93E8",
"R. c #3CA2F1",
"E. c #3BBCC4",
"W. c #5892D5",
"Q. c #73B7D7",
"!. c #4589F6",
"~. c #4996FA",
"^. c #5A9DFB",
"/. c #5397FA",
"(. c #4E92EC",
"). c #629EF7",
"_. c #659CE9",
"`. c #5AA5FC",
"'. c #45B4FF",
"]. c #5AB9FF",
"[. c #50AAED",
"{. c #64B5ED",
"}. c #63A5FD",
"|. c #6BABFD",
" X c #66A8FC",
".X c #73ADFA",
"XX c #6AB8FA",
"oX c #7AB3FC",
"OX c #7CBDFD",
"+X c #77BAF7",
"@X c #77B4ED",
"#X c #5EA1D4",
"$X c #78D1DB",
"%X c #78C6FC",
"&X c #7CD0FF",
"*X c #71C7F5",
"=X c #79E8FF",
"-X c #52D3DB",
";X c #919191",
":X c #AFAFAF",
">X c #8A9EB7",
",X c #8AE79C",
"<X c #82B9E4",
"1X c #83BCFE",
"2X c #83BCF1",
"3X c #9ABDF7",
"4X c #81AFE3",
"5X c #A9B9FC",
"6X c #B0BBFF",
"7X c #A5B9D2",
"8X c #89D5D0",
"9X c #ACCED8",
"0X c #98F1D5",
"qX c #AAEFD7",
"wX c #88C7FB",
"eX c #96C9F9",
"rX c #87D4F9",
"tX c #9AD5FB",
"yX c #97D7EA",
"uX c #A4DDEA",
"iX c #A8C8FB",
"pX c #ABD3FD",
"aX c #A8D7F9",
"sX c #BDDAFF",
"dX c #B5D6FC",
"fX c #B3CBF9",
"gX c #AAE5FF",
"hX c #B4E3FE",
"jX c #BCE8FB",
"kX c #BBFFF3",
"lX c #B8EFEB",
"zX c #D9D9D9",
"xX c #C9DBFC",
"cX c #D4DAFC",
"vX c #CDC9F9",
"bX c #C6E7FC",
"nX c #D5E2FE",
"mX c #D8EAFB",
"MX c #D6F4FD",
"NX c #CAF3F3",
"BX c #E9E5F5",
"VX c #FFFFFF",
"CX c #F4F4F5",
"ZX c #EBEAF6",
/* pixels */
" . .2.2.{ 5.5. .;.;.2.2. . . . .3.3.$.o.$.o.$.$.O.$.#.$.#.$.$.@.%.@.} | =.[ | @.@.@.@.=.@.@.@.#.#.@.$.=.@.>.>.>.>.>.>.=.@.>.[ >.>.[ >.>.@.=.",
";.3.o.o. . . . .o.#.#.#. . . . .;.:.o.o.o.o.#.o.o.o.#.#.$.#.#.#.#.#.@.X.@.#.#.@.X.@.#.o.#.o.+.o.o.o.@.@.=.@.@.>.=.@.[ >.>.@.@.=.@.@.=.@.} @.",
"3.;.o.o. . . . .#.#.#.#. . . . .;.;.o.o.o.o.o.o.o.o.o.#.#.#.#.#.#.#.#.@.@.@.X.@.#.X.X.@.X.o.X.o.o.o.=.@.=.@.=.@.@.>.=.@.@.=.>.@.@.>.@.=.=.=.",
"@.#.#.2.O.O.[ O.#.;.#.;.[ O.@.[ ;.#.X.$.O.$.#.O.$.@.$.@.@.$.=.:.@.@.] [ X.] X.] ] ] @.[ @.X.@.@.@.[ @.@.[ @.@.[ [ @.@.@.@.@.} =.@.=.@.@.@.@.",
"@.@.#.#.$.O.$.O.;.;.#.;.$.O.$.O.;.;.#.X.X.@.$.#.@.@.=.@.@.@.=.:.@.@.[ ] X.] [ ] [ ] [ [ [ + B = ] $.=.| =.=.@.@.@.@.@.@.@.@.>.@.@.>.@.} =.@.",
"' ' ,.,.@.@.>.} >.,.,.,.[ } @.} } >.} | } ..[ [ [ @.,.| | >.| | | | [ ] ] [ [ [ { [ [ d C C C C t  .| ` p : @.@.@.[ >.=.=.@.[ >.=.>.@.=.} >.",
"' ' >.| } } >.} >.>.>.,.} } } @.>.>.| } | } | } } | | | | | | | | | [ [ [ [ [ [ [ [ : C C C C C 9 t C C C C Z p [ [ @.@.} =.>.=.>.[ @.=.@.=.",
"@.>.>.>.>.>.=.=.=.=.=.>.=.>.>.@.=.@.@.=.=.@.=.} =.=.>.=.>.>.=.>.>.>.@.@.[ [ =.[ =.@ C C C C C C C C C C C C C C > =.@.=.@.@.>.@.@.>.@.@.@.@.",
"=.=.>.@.=.>.>.=.>.| =.} =.=.@.>.} =.=.=.@.>.>.=.} =.>.@.| >.>.@.=.>.| @.@.@.>.>.+ C C C C C C C C C C C C C C C C @.@.@.@.@.>.@.>.@.=.>.} =.",
"@.=.} =.=.@.| >.@.@.>.=.=.@.} =.=.>.=.@.=.} =.>.=.>.=.@.@.@.=.@.>.=.>.@.=.} @.. C C C C C C C C C C C C C C C C C E =.@.=.@.@.>.@.@.@.@.@.@.",
"=.>.=.>.@.>.>.[ >.=.} @.| >.=.=.@.>.| >.=.@.>.@.=.@.>.| @.>.>.| @.| @.=.>.o V C C C C C C C C C 0 = 0 V C C C C C e @.@.@.=.@.>.=.@.@.} @.@.",
"@.| @.@.| >.=.>.=.>.=.=.@.=.@.=.=.@.@.=.=.=.| @.@.=.@.=.>.=.=.>.@.>.X.; C C C C C C C C C C o [ | | d C C C C C C C @.=.@.=.>.[ @.@.=.=.=.@.",
"@.@.>.=.| @.@.@.=.@.>.=.@.@.>.=.| @.>.>.=.>.@.| >.=.@.>.| @.@.@.] Z C C C C C C C C C C o @.=.=.=.=.=.- C C C C C C @.=.@.=.@.@.@.>.@.@.=.@.",
">.=.=.} >.=.>.=.@.@.| >.>.=.=.} >.=.=.@.[ =.>.>.| @.=.>.>.=.>.=.g C C C C C C C C e : >.} =.[ =.=.[ [ ` C C e C C C ` @.>.} @.=.@.=.@.>.} >.",
">.=.=.=.=.>.| =.>.>.| =.>.=.=.@.=.>.| =.>.>.>.=.@.=.@.>.=.@.=.>.-., C C C C 0 > $.@.>.=.@.=.@.=.@.@.@.@.C C C C C C V =.=.=.@.@.=.>.@.@.@.=.",
"[ [ >.>.>.>.>.>.>.>.>.>.>.>.>.>.>.>.>.>.>.>.>.>.>.>.@.| =.=.} >.=.=.} @.@.@.>.@.} @.[ @.[ @.[ [ [ [ @.@.C C C C C C C [ [ @.[ [ [ [ @.=.@.@.",
"=.| >.,.>.,.>.,.:.:.:.:.:.:.:.:.:.:.:.:.:.:.:.:.>.,.=.[ [ =.} >.| ` d > @ a W =.@.@.@.@.=.[ @.[ @.[ =.@.Z C C 8 C e C @.@.@.@.@.[ =.@.@.>.@.",
"@.@.,.>.=.>.,.>.:.:.:.:.:.:.:.:.:.:.:.:.:.:.:.:.=.E =.+.: > + w C C C C C C C C a =.[ [ @.@.@.@.@.=.=.@.w C C 7 C t C | @.[ =.[ @.@.=.@.>.@.",
"@.[ =.>.,.,.>.,.:.:.:.,.:.:.:.:.:.:.:.:.=.=.:.:.9 r e o @.: = 0 C C C C C C C C C E - @.[ =.[ =.=.[ @.@.= C C 8 C C C [ [ @.@.[ [ @.=.@.[ @.",
"=.=.>.>.,.,.>.=.:.:.:.,.:.:.:.:.:.:.:.:.* 8 9 X e e e e r , V C C C C C C C C C C C C ` =.@.>.@.@.@.@.=.X C C 8 C C C } =.=.@.=.=.@.@.@.>.=.",
"=.=.>.>.:.:.:.:.>.>.>.>.>.,.>.>.>.>.=.X.e e e e e e r e r 8 C C C C C C C C C C C C C * | @.=.@.=.@.@.=.. C C * C C C @.@.@.=.@.@.=.@.=.>.=.",
">.>.,.>.:.:.:.:.>.>.,.>.,.>.>.>.=.>.=.8 e e r e e e e e + C C C C C C C C C C C C C 0 C X | =.@.>.>.>.@.. C C * C C 9 @.>.>.>.>.>.@.@.} =.=.",
">.>.>.>.@.@.:.:.,.$.=.=.=.>.=.>.>.>.a e 0 e e e e e e e C C C C C C C C C C C C C C t C C # @.@.>.>.@.[ . C C e C C . =.@.=.>.>.=.=.@.@.} @.",
"[ } ] [ $.@.$.@.@.@.$.%.,.%.%.,.$.+.e e e e e e e e e = C C C C C C C C C * w C C C C C C C >.@.>.,.@.$.= C C C C C ` @.=.=.=.=.-.-.] X.@.@.",
"} [ $.$.@.@.$.$.$.$.$.%.;.%.#.#.#.0 e e e r e e e e r X C C C C C C C y M M M M z X C C C C E @.>.@.=.=.B C t C C C >.>.=.=.=.=.-.-.$.@.$.#.",
"<.<.e.$.%.1.e.1.1.1.$.%.%.%.1.%.8 r r e e e e e e e 9 * C C C C C C 3 M M M M M M M M . C C g @.@.@.@.} C C * C C * @.@.>.>.>.>.,.,.,.%.$.$.",
"<.u.u.e.1.u.u.u.1.u.1.%.1.1.#.8 e e e e e e e e r e > - C C C C C 8 M M M M M M M M M M n V t Z @ $.>.d C C C C C ] @.@.,.,.,.,.,.,.<.1.<.1.",
"u.u.u.u.g.u.u.u.u.g.r.%.%.f e e e e e e e e e e 9 e.%.%.. C C C C M M M M M M M M M M M M M = C C C p r C + C C w @.<.%.1.,.<.<.,.<.1.1.e.1.",
"u.u.r.u.u.r.u.u.u.g.%.~ X r e e r e e e e e r 8 <.<.1.u.1.@ C C V n M M M m z % 4 M M M M M M O C C * C C C C C %.%.<.<.1.1.<.<.,.<.1.<.1.<.",
"<.u.r.r.r.r.r.r.g.u.@ e e e e e e e e e e e , r.r.r.g.u.u.u.u.% ; M M M M M M M M M M 2 M M M M k Z C C = C C d <.e.<.e.<.<.<.<.y.<.,.<.,.<.",
"u.u.r.r.r.r.r.r.%.+ e e e e e e e e e e w o.g.g.g.u.d.g.d.g.N M M M N M M M M M M M M l M 5 M M M m C - C C g r.e.e.e.u.u.e.u.<.u.<.,.>.<.,.",
"e.u.g.g.h.g.s.q.X e e e e e r e e e r = f.f.x.f.d.f.f.B.B.q.M M M b 4 2 5 n M M M M M B M M b M M M l t C B u.e.<.e.} $.$.$.} $.$.$.} =.} } ",
"u.g.s.x.d.d.@ e e e e e r r r r 9 p f.f.x.f.c.x.f.f.f.x.c.O M 4 z C 0 C C C C Z * k q C . M M M M M M M & C ' e.e.e.e.} $.e.} } @.$.} | [ } ",
"f.h.c.z.z.z.q.. 1 9 9 1 ; # ' B.B.B.c.c.B.c.c.c.c.B.f.s.s.: m M 2 9 Z C C C C C C C C C C N M M M M M M M m f } $.} $.$.} $.$.,.} } } } } =.",
"x.c.c.c.z.c.c.B.B.c.B.B.B.B.B.B.B.B.c.c.B.c.c.c.c.c.c.z.c.f.O M 2 Z C C C C C C C 7 C C C X w m M M M M M M M W } } } } $...} } [ } | [ | =.",
"B.B.c.V.N.V.V.N.B.B.B.B.B.B.B.B.B.B.c.c.B.c.z.z.c.B.c.B.c.z.z.f 2 C C C C C C C C C C C C C C C V m M M M M M M +.[ } $...$.....[ ......} } ",
"V.V.c.V.V.N.V.N.B.B.N.N.N.N.N.N.B.B.N.N.z.z.B.z.z.z.z.c.z.z.z.z.g t C 9 C C C C 8 Z C Z C C * C C C % m M b M M d [ [ [ } } ..[ [ [ { | } } ",
"V.V.N.z.N.N.b.N.N.N.N.N.N.M.M.N.M.M.M.M.s.s.z.z.z.z.s.q.q.q.q.z.= * 0 ; C C C C w * # ;X~ ) a C C C C B b M N M [ [ ..| } | | | | | | | | -.",
"V.V.b.N.N.N.N.z.N.N.M.M.N.M.M.z.M.s.s.s.z.s.s.s.s.s.q.q.q.q.' q.;XVXVX. C C C C BXVXVX, VX< . C C C C C - M M b 4 `  .| | | [ { | | } ..| | ",
"x.x.n.w.n.n.n.n.b.v.n.h.h.h.h.p.p.p.d.d.p.p.r.r.r.e.e.e.e.e.0.e.:XCX7X. C C C C VXVXVXQ C.. . C C C C C C n M $ . M E | { |  .| .. .[ ....} ",
"x.x.w.w.w.w.h.w.h.n.h.h.h.h.p.t.r.t.d.u.p.u.u.e.e.e.e.e.e.e.e.6.:XVXa o C C C C VXVXVX> _ . . C C C C C C . M $ O M M W  .............} } ..",
"f.x.0.t.t.h.t.t.h.h.h.h.p.p.p.a.p.a.e.y.e.e.e.e.e.6.O.e.6.6.6.e.j VX) . C C C C VXVXVX;X) . : Z C u * 1 Z w n 6.x v M M ] 6.8.9.8.e.y.8.e.e.",
"p.d.t.0.m.0.0.t.r.a.t.p.a.a.a.y.e.e.$.e.$.6.$.} 6.} } 6.] $.> q . VX> p C C C C VXVXVXVX> ) _ C 9 P L T Y K a 9.6 c M M $ a.y.i.i.y.y.p.i.i.",
"i.i.i.i.p.i.i.y.i.i.i.y.y.y.e.8.6.8.{ ......6...} 6.} } 7.6.* A U VXCX+ i X e C zXVXVXVXVXVXo q Y U Y Y Y Y P 1 d c 5 M M E h.p.t.h.p.p.x.p.",
"y.y.y.y.a.y.y.y.i.y.y.8.e.8.6.6.} { { ..{ ..6...} 8.6.8.y.A Y Y Y K Y Y Y Y Y T . VXVXVXVXBXL Y Y Y Y Y Y Y Y # ~ x O M M b j.j.n.j.x.x.x.x.",
"....8.y.8.8.8.8.8.8.8.8.8.6...} { ..{ { { 6.5.8.8.8.6.y.y.A Y Y Y Y ;XVXZXA Y Y Y P < zX+ Y Y Y Y Y Y Y Y Y Y P W c 3 M M M d v.n.v.b.b.b.c.",
" . .{ {  .{  . .{ ..8.8...8.{ { { .. . .5.5.8.8.9.9.9.y.y.g Y Y Y Y . . . Y Y Y Y Y Y Y Y Y Y Y Y Y u . Y Y U i > x 3 M M M 2 v.b.b.b.b.b.b.",
" . . . . ... . . . . .5. .{ } 4.{ { 5.5.5.8.9.9.a.i.a.t.h.i Y U Y Y Y . U Y Y Y Y Y Y Y Y Y Y Y Y Y . T Y Y Y o v x . M M M N U.n.U.n.!.V.!.",
" . . . . . . . . . .8.5.5.5...6.6.6.9.9.9.i.i.i.j.j.j.j.x.: Y Y Y Y Y Y Y Y Y Y Y Y Y Y Y Y Y I + L Y Y Y Y q d b x 5 M M M M I.V.b.!.!.V.!.",
"{ {  .{ { { { 5.5.5.9.7.7.7.7.7.7.7.m.l.l.l.k.j.k.v.I.v.b.!.Y Y I Y Y P Y Y Y Y Y Y P Y Y Y Y Y Y Y Y Y Y + !.x x x M M M M M !.!.!.!.(.(.!.",
"{ { { { 5. . .5.5.5.9.9.7.l.i.l.l.l.k.k.k.v.v.I.I.I.I.!.!.!.^ I Y u K VXCX:X; i A y Y Y Y Y Y Y Y Y K X ^ /.k x x & M M M M M /./././.~././.",
"4.4.{ { 5.5.5.9.7.7.l.l.l.l.l.k.v.P.v.P.U.U.U.U.U.!.!.!.(.(././.( u T VXCXzXY Y Y T Y Y Y Y Y i , _.).).! c x x & M M M M M z ).).).^.^.^.^.",
"4.{ 5.5.9.9.9.l.l.l.k.k.P.P.U.U.U.U.I.U.U.U.!.!.~.!./.~././.^.^.^.^.}.:XVX# Y Y Y Y I h _. X.X|.|.|.( & c c x 6 M M M M M M . |. X X}.}.}.^.",
"4.4.5.5.7.7.7.l.l.l.k.P.P.U.U.U.Y.U.U.~.~.~.~.~.~./.^.`.^.}.}.}.|.|..Xh CXu Y Y K W.oX2XoXoX@XoXoX! v x x c x l M M M M M M / .X.X.X|.|. X}.",
"4.4.4.9.7.7.l.k.l.P.P.U.P.I.U.Y.Y.Y.~.~.~.`./.`.`.`.`.`. X|.|.|..X.XoXoXoXW./ oX1XoX1X1XOX1X1X1X% x x x x v m M M M M M M l .XoXoXoX|.XX X X",
"4.4.9.i.w.w.L.L.U.P.U.(.U.Y.W.(.[.[.~.~.^.`.}.}.|. XXXXXXXXX+X%XwX1X3X3X3X3X5X5X5X5XiX3XiX3XiX6 b x x x & M M M M M M M M 4XOXOXOXXX<X<X@X@X",
"m.m.j.j.w.U.L.T.Y.U.(.~.!.~._._.`.[.`.`.`. X.X|..X{.XX+X*X*X%X%XwXwXiXeXiXiX6XfXfXiXfXpXpXiXdXx j fX( 2 M M M M M M M M j wXwX%X%X%X<X<X+X@X",
"P.P.U.w.T.T.!.(.~.Y.[.[._.).#X[. X}.[.{.{.+X@X2X2XwXwXwXwXeXiXiXiXiXfXfXfXfXdXfXpXpXaXtXgXtXtXaXiXdXvXM ( >X& M M M M < tXtXiX5X5X6XOXOX2X+X",
"U.U.!.!.R.Y.~./.~.R.`.`._..X{.-X.X.X{.XX+X+X2X2XwXeXeXtXeXtXpXpXfXfXxXfXdXxXxXsXhXhXgXgXgXgXgXhXsXdXvXcXcXvXsX, M M < uXaXtXiXiX6X6XwXwXwXwX",
"Y.R.R.(.R.R.^.^.`.`.].`.4XQ.{.XX1X1X*X*XwXwXeXeXeXiXuXfXfXfXfXxXvXcXlXlXxXbXxXcXcXcXxXxXbXxXcXnXcXnXhXdXjXjXbXF.M F.dXuXyXyXtXwXwXwX&X&X%X%X",
"Y.R.~.'.R.'.}.`.`.].|.XX4X@X*X*X1X1XwXwXwXeXeXpXfXiXdXdXsXsXxXxXcXBXlXNXNXbXnXnXcXnXnXnXbXmXnXcXcXcXjXjXhXhXhXaX9XuXuXuXuXyXtXtXeXrXrX&XwX&X",
"Z.Z.'.'.#X{.].].Q.Q.OXOX*X%X1XeXrXrXtXtXpXpXdXdXdXxXbXbXjXbXmXmXmXMXzXNXzXBXBXBXBXBXMXmX0XNX0XqX,X0XNXMXbXjXdXbXjXhXaXaXaXaXaXaXtXaX&X&X$X$X",
"Z.Z.'.'.{.{.].XX$X*XwXOX&X&XeXeXtXrXtXaXpXdXsXsXxXbXbXbXNXMXMXMXZXMXzXNXBXBXBXZXZXZXzX9XF.qXS.H.G K.>X9XyX7X3XNXbXdXdXdXdXuXaXaXuXaX&X&X$X$X",
"F.D E.-XQ.-X%XXXF S.E.H.=X=X8XyX0X0XjXsXbXbXnXmXMXMXMXNXkXNXMXNXqXqXD.8XkXqXNXqXkXkXS.S G.S.H S H H S K.S A.F.8XgXjXuX8X0X8XJ.A.J.J.,XR J J ",
"                                                                                                                                            "
};
