/* XPM */
static char *_487798cf8ec4bf5ed129d3741807594DikmXwbrYnCsirYx[] = {
/* columns rows colors chars-per-pixel */
"70 65 197 2 ",
"   c None",
".  c black",
"X  c #083602",
"o  c #144C0C",
"O  c #0F6B03",
"+  c #157709",
"@  c #2D6326",
"#  c #747500",
"$  c #243A5C",
"%  c #0B2E7C",
"&  c #112D7B",
"*  c #0D327C",
"=  c #13347B",
"-  c #1F3A7C",
";  c #1A377E",
":  c #203878",
">  c #316F50",
",  c #294E7D",
"<  c #37587C",
"1  c #2F527E",
"2  c #3A617F",
"3  c #7C794B",
"4  c #44637A",
"5  c #55697B",
"6  c #5B6C75",
"7  c #656C7D",
"8  c #6C747F",
"9  c #279818",
"0  c #359928",
"q  c #41AF32",
"w  c #208575",
"e  c #31B36B",
"r  c #40A27C",
"t  c #3FC07F",
"y  c #5AC64C",
"u  c #4FC973",
"i  c #7CF876",
"p  c #E8EA00",
"a  c #83F176",
"s  c #4476BA",
"d  c #275AD9",
"f  c #1F56EF",
"g  c #1E56F4",
"h  c #1D59F6",
"j  c #1E57FD",
"k  c #145BFD",
"l  c #1D59F9",
"z  c #175EF6",
"x  c #2355EF",
"c  c #2857EE",
"v  c #225AEE",
"b  c #304FFF",
"n  c #2157F6",
"m  c #2A55F3",
"M  c #245AF5",
"N  c #2B5CF6",
"B  c #2157F8",
"V  c #2B52FB",
"C  c #2258F9",
"Z  c #295EFA",
"A  c #3052F4",
"S  c #3050F9",
"D  c #1667E9",
"F  c #286DEF",
"G  c #3176EE",
"H  c #2C63F4",
"J  c #296DF3",
"K  c #2365FB",
"L  c #2C62FA",
"P  c #266AFA",
"I  c #2B6CFB",
"U  c #2568F6",
"Y  c #3164F5",
"T  c #3363F5",
"R  c #346AF6",
"E  c #3066FA",
"W  c #366DF8",
"Q  c #3A6DFA",
"!  c #3C6DFB",
"~  c #2E71F6",
"^  c #2871F5",
"/  c #3174F3",
"(  c #3E72F5",
")  c #367BF4",
"_  c #3370FE",
"`  c #3E74FA",
"'  c #3D73FB",
"]  c #367AF9",
"[  c #2270EF",
"{  c #406FF1",
"}  c #4175F5",
"|  c #4172F4",
" . c #4272FA",
".. c #4176F8",
"X. c #4574F8",
"o. c #4279F9",
"O. c #3DAABE",
"+. c #51B186",
"@. c #62B69C",
"#. c #73B7A4",
"$. c #62BDB6",
"%. c #4DB2A2",
"&. c #3EC18D",
"*. c #46C786",
"=. c #62C49E",
"-. c #6EC6B5",
";. c #56ECAC",
":. c #3BBCC4",
">. c #2A81F2",
",. c #3987F7",
"<. c #389BF6",
"1. c #2F93EB",
"2. c #3CA2F1",
"3. c #57AFDF",
"4. c #78B6DB",
"5. c #6EB7D2",
"6. c #4689F6",
"7. c #4B9EFC",
"8. c #4596F8",
"9. c #5699FB",
"0. c #458DEF",
"q. c #689DED",
"w. c #56A8EA",
"e. c #5DB3E5",
"r. c #43ABF2",
"t. c #59A7FC",
"y. c #45B4FF",
"u. c #5AB9FF",
"i. c #4FA1ED",
"p. c #62B5EC",
"a. c #77B4ED",
"s. c #63A5FF",
"d. c #63AAFF",
"f. c #6AACFF",
"g. c #68A3F4",
"h. c #70AAFA",
"j. c #6BBBF4",
"k. c #67B5FC",
"l. c #7CBAFB",
"z. c #7BD8DD",
"x. c #71C4D8",
"c. c #6EC9FF",
"v. c #7DC4FF",
"b. c #7DCCFD",
"n. c #75C5F8",
"m. c #7ED0FF",
"M. c #76D1FF",
"N. c #77C4E0",
"B. c #79E8FF",
"V. c #52D3DB",
"C. c #88A9B0",
"Z. c #8EFC81",
"A. c #86D2B6",
"S. c #F8F295",
"D. c #82B9E4",
"F. c #87BAFF",
"G. c #ACB7FF",
"H. c #B0BBFF",
"J. c #8AD3CE",
"K. c #B2D5D7",
"L. c #98EFD7",
"P. c #9BF5DB",
"I. c #95E9CF",
"U. c #A6EBD9",
"Y. c #AFF5D3",
"T. c #9DDAED",
"R. c #8ECEFF",
"E. c #85C7FC",
"W. c #94CAFF",
"Q. c #87D4F9",
"!. c #94D3FE",
"~. c #9DD7FF",
"^. c #8BD8E2",
"/. c #A4C8FB",
"(. c #A3D3FD",
"). c #A9D8FA",
"_. c #B1DCFE",
"`. c #BED9FF",
"'. c #B6D1FB",
"]. c #ADD7F1",
"[. c #AAE5FF",
"{. c #B9E6F9",
"}. c #BAFFF3",
"|. c #B8EFEB",
" X c #CCDDFD",
".X c #C7DCFA",
"XX c #D2DDFF",
"oX c #D6D5F7",
"OX c #C6E4F6",
"+X c #D5E2FE",
"@X c #D9ECF7",
"#X c #CAFAFA",
"$X c #D9F1FD",
"%X c #CFF1EC",
"&X c #E9E5F5",
"*X c #F2E8FC",
"=X c #E3F2FF",
/* pixels */
"k k A A z z z z N V S S k k k k V b M M c M M M m M M m M M m n M C j j n n n j n n B n M m m m M m n n B B B B B B C n n n B n B n n n C n ",
"V b c c k k k k m m m m k k k k V V c c c c c c c c m x n m m m m m g x n x n x m x m x n m c c x x n n n B n B C m n n n B C n n B B n n n ",
"b V c c k k k k m m m m k k k k V m c c c c c v c c m c m m m m m m M n x n x m x x n x x x c x x x n B B B n B C B B B C n n n C n n B B g ",
"n m m A v v v v m m V m f v M M m V M x x v M m n M M n m n n B n M f f x f f f f f f g n x n v v M n n g B g B g n n n g n B n g C n n n C ",
"n n m m M v v v V V m N v M v M V V M M M x x x M n n n m M C B j g f f f f f f f f g g x g g g n x g B g B B g n n n n C n B n n C n B n n ",
"d d j C l n h C C C C j h h h h B B h h h j h j j h j j l l j j j j f g f g g g g g z g h h k g l z n n B g g n g g B B n B C n n B n n C B ",
"d d B C n l C l C C C C C h h C B B j h g l j g h j j j j j j j j j g f g g f g h g g h g k l k z k n g g g g n n g C n B n n n n n g C n n ",
"n B B B B B n B C C n n n n n n n n n n n j B B n C n n j n n n g C C g g g g g C g l C g g g n g g B n V g B B B B g C n n B n B n C n B n ",
"B B B B B B B B j C B B B B B B B B B B B B B B C g B B B B B B C C B C B n n n n n C C B n g B n B B n n C B n B n n B n n n C n n B C g C ",
"B B B B B B B B B n B B B B B B B B B B B B B C B B B B B B B C C g n B n B C n B n n C n n B g g g n n n n n n n B B n n B n n n C n n B n ",
"B B C B B C B B C B B B g C B B j B B B B B B B B B B B C B B g B B B n C n n B n n C C n B B g B n n B n B C n B B n n C n n B n n n n n n ",
"B B g B B B B B g C B B C B B B C B B B B B B B B B B B B B B B B B B n g C n n C n C n n V g B g n n n C n n n n n n B n n B n B n B n B n ",
"B B B C B B B B B B B B B B B B B B B B B B B B B B B C B B B B B B n B n C B n n n B C n n B g n B B n B n n B B n n n n n n C n n B C B n ",
"B B B B B B B B B B B B B B B B B B B B B B B B B B B B B B B B C B n B C g n n C n C C B n g n n g n B n n B n n n B B n B n n B n n n n n ",
"B B g C B B B g B B B B B B B B B B B B B B B B C g B B B B B B g B B n n n B C g B C B n n n B n n n B n B B n B n B B B B n B B B n B n C ",
"j g C C C C C C C C C B C C C C B C C C C C B C C C B B B C B B B C B n B n n n C n g g n g g g g g B n B n n n B n g g n g g g g g B n n n ",
"B B C C C C C C C C C C C C C C C C C B C B C C B C B B B B C B B B n C C g n n n n n B g n n n g B B B B n B B n n n n g g C n B n B B n n ",
"B B B B C B B C C C C C C C C C C C C B C C B C C C B B B B g B B B B g C C n C B B n g C n g n B g n n n n n n n B n h n n n g g n n n n B ",
"g B B B C C C C C C C C C C C C B C B C C C C C B C B C B B B B B B n C g C C n n B g n g n n n B g B n n B B n n B n n C g n g g B C n n B ",
"B B B B C C B C B C C B C C C C C C C C B C B C C C B B B B B B n C n n C n g C n n n C n C n n B n B n n B n n B n n n n n C C n n n n B n ",
"C g C C B C C B C B C C C C C C C B C B C C C C C C g B n j C C B g C B n n C n B B n B B B B B n n B n B n n B n n n B n n n C n n n n n B ",
"C C C C C C C C C B C C C C C C C B C C C B C B C C C B n C n n B B n B n C n n n n C C B B C C B B B B B n n B B B B B C C n C C C n C n h ",
"C C C C C B C C B B C C C j C C C C B C B B C C C C n C n C g n C C B n n n n C n n n C C B C C B B B m n n B n n n B B B B C n C n n n B n ",
"g g x g n n n B M n C M M m N C N V g n n B B g n n M n n n g & . . . . . . . . . . . . . . . . . . . . . . . . . g B B B B B B B n n g x n ",
"g h M h M M M M n M M M N V M m m N C C C C C h C n h n g n n & . . . . . . . . . . . . . . . . . . . . . . . . . n n B B B C C C B B n n m ",
"C Z U M C Z U Z Z Z Z M N N N N N C Z Z C L L L L L M n M M M & . . . . . . . . . . . . . . . . . . . . . . . . . n C C B B C C C C B N Z n ",
"Z Z H L L L L L L L N H Z Z N N N N L Z L Z Z H Z Z . . . . . @ y y q 9 9 q y y 9 9 9 y y q 9 9 q y y q 9 9 y y y . . . . . & C C C C Z Z C ",
"L K H L L L L E L L N N T N T N L N Z Z C H C H Z H . . . . . @ y y q 9 9 q y y 9 9 9 y y q 9 9 q y y q 9 9 y y y . . . . . & V Z C K Z Z Z ",
"L K H H L L Y L L E L N Y T T N L N Z Z M U N M C H . . . . . @ y y q 9 9 q y y 9 9 9 y y q 9 9 q y y q 9 9 y y y . . . . . & Z Z C Z Z Z Z ",
"Z Z H H H H H H H Y Y Y Y Y T T T T L L H N L & . . y y y y y q 9 9 q y y y y y y y y 9 9 q y y y y y y y y 9 9 9 y y y y y @ . . = C Z B Z ",
"Z L H U H H H H Y Y Y Y Y Y Y N T T T L E E E ; . . y y y y y q 9 9 q y y y y y y y y 9 9 q y y y y y y y y 9 9 9 y y y y y @ . . & L C C C ",
"L L R R R J R R R R Q Q ! ! ! ! ! { Q Q Q Q Q ; . . y y y y y q 9 9 q y y y y y y y y 9 9 q y y y y y y y y 9 9 9 y y y y y @ . . % h B h l ",
"I L W / R R Q W ! W ! Q ! ! ! ! ! ! ' Q - . . o 9 9 y y y 9 9 q y y q 9 9 q y y 9 9 9 y y q 9 9 q y y q 9 9 y y y 9 9 q y y q 9 9 o . . n h ",
"W W ( ( ' ( ( ! Q '  . . . .X. . .' ' ` : . . o 9 9 y y y 9 9 q y y q 9 9 q y y 9 9 9 y y q 9 9 q y y q 9 9 y y y 9 9 q y y q 9 9 o . . B l ",
"' ' ` ` ' ` ` ` ` `  ... . .X.X. . .` ` - . . @ y y 9 9 9 y y y y y y y y q 9 9 y y y y y y y y q 9 9 q y y y y y y y q 9 9 q y y @ . . l l ",
"` ` ` ` o.` o.} X. .X.X.X.X.X.X.X.X.` ..- . . @ y y 9 9 9 y y y y y y y y q 9 9 y y y y y y y y q 9 9 q y y y y y y y q 9 9 q y y @ . . l h ",
"o.o...o.} o...o.} X.}  .|  .| | X. . .( : . . @ y y 9 9 9 y y y y y y y y q 9 9 y y y y y y y y q 9 9 q y y y y y y y q 9 9 q y y @ . . l B ",
"o.o.} ` } } ( } } X.{ ( (  .{ | | : . . @ y y q 9 9 y y y 9 9 q y y q 9 9 q y y 9 9 9 y y q 9 9 q y y q 9 9 y y y 9 9 q y y q 9 9 q y y . . ",
"o.o.( ( ( } } ( } | { ( { { { { | : . . @ y y q 9 9 y y y 9 9 q y y q 9 9 q y y 9 9 9 y y q 9 9 q y y q 9 9 y y y 9 9 q y y q 9 9 q y y . . ",
"_ _ ) ) ) ) ) ) ] ) / / / / I I J = . . @ y y q 9 9 y y y 9 9 q y y q 9 9 q y y 9 9 9 y y q 9 9 q y y q 9 9 y y y 9 9 q y y q 9 9 q y y . . ",
"_ _ G G G G G G / / ~ ~ ~ ~ J J J = . . o 9 9 q y y y y y y y q 9 9 q y y y y y y y y 9 9 q y y y y y y y y 9 9 9 y y y y y y y y q 9 9 . . ",
"_ / F ^ F ~ J J J J I I I I P P P = . . o 9 9 q y y y y y y y q 9 9 q y y y y y y y y 9 9 q y y y y y y y y 9 9 9 y y y y y y y y q 9 9 . . ",
"W I J J F J F J J J J J ^ J K U U = . . o 9 9 q y y y y y y y q 9 9 q y y y y y y y y 9 9 q y y y y y y y y 9 9 9 y y y y y y y y q 9 9 . . ",
"P P P P P = . . . . . . . . . . . X O O 0 y y q 9 9 y y y 9 9 q y y q 9 9 q y y 9 9 9 y y q 9 9 q y y q 9 9 y y y 9 9 q y y q 9 9 + O O . . ",
"K K U K U = . . . . . . . . . . . X O O 0 y y q 9 9 y y y 9 9 q y y q 9 9 q y y 9 9 9 y y q 9 9 q y y q 9 9 y y y 9 9 q y y q 9 9 + O O . . ",
"k j * . . 3 S.S.S.S.S.S.S.S.S.. . X O O O O O O O O O O O O O O O O O O O O O O O O O O O O O O O O O O O O O O O O O O O O O O O O O O . . ",
"k j % . . 3 S.S.S.S.S.S.S.S.S.. . X O O O O O O O O O O O O O O O O O O O O O O O O O O O O O O O O O O O O O O O O O O O O O O O O O O . . ",
"k k % . . 3 S.S.S.S.S.S.S.S.S.. . X O O O O O O O O O O O O O O O O O O O O O O O O O O O O O O O O O O O O O O O O O O O O O O O O O O . . ",
". . 3 S.S.S.S.. . S.S.S.S.S.S.S.S.3 . . # p p p p p p p p . . . . . # p p p p p p p p p p p p p p p p p p p p p p . . . . . # p p # . . 6.6.",
". . 3 S.S.S.S.. . S.S.S.S.S.S.S.S.3 . . # p p p p p p p p . . . . . # p p p p p p p p p p p p p p p p p p p p p p . . . . . # p p # . . 6.6.",
". . 3 S.S.S.S.S.S.S.S.S.S.S.S.S.S.3 . . # p p p p p p p p . . . . . # p p p p p p p p p p p p p p p p p p p p p p . . . . . # p p # . . 9.9.",
". . 3 S.S.S.S.S.S.S.S.S.S.S.S.S.S.S.S.S.3 . . # p p . . . S.S.S.S.S.3 . . # p p p p p p p p p p p p p p p p . . . S.S.S.S.S.3 . . $ s s 9.9.",
". . 3 S.S.S.S.S.S.S.S.S.S.S.S.S.S.S.S.S.3 . . # p p . . . S.S.S.S.S.3 . . # p p p p p p p p p p p p p p p p . . . S.S.S.S.S.3 . . < s.s.s.s.",
". . 3 S.S.S.S.S.S.S.S.S.S.S.S.S.S.S.S.S.3 . . # p p . . . S.S.S.S.S.3 . . # p p p p p p p p p p p p p p p p . . . S.S.S.S.S.3 . . < f.f.s.s.",
"D D * . . . . . . . . . . . . . . . . . , 7.7., . . S.S.S.S.S.S.S.S.3 . . . . . . . . . . . . . . . . . . . S.S.S.S.S.S.S.S.3 . . < f.f.f.f.",
"D D = . . . . . . . . . . . . . . . . . 1 9.g.1 . . S.S.S.S.S.S.S.S.3 . . . . . . . . . . . . . . . . . . . S.S.S.S.S.S.S.S.3 . . < D.D.a.a.",
"[ [ ; . . . . . . . . . . . . . . . . . 1 s.f.< . . S.S.S.S.S.S.S.S.3 . . . . . . . . . . . . . . . . . . . S.S.S.S.S.S.S.S.3 . . 2 D.D.l.a.",
">.>.,.) 1.1.0.6.<.8.i.w.q.q.3.e.s.s.p.p.< . . 3 S.S.S.S.S.S.S.3 . . 5 '.'.'.'.'.).).(.[.~.~.(.).s . . 3 S.S.S.S.S.S.S.3 . . 5 /.G.G.l.v.n.a.",
",.,.0.6.<.<.9.9.7.7.t.t.g.g.e.p.h.h.j.j.4 . . 3 S.S.S.S.S.S.S.3 . . 5 `.`..X.X`.`.{.[.[.[.[.[.[.3 . . 3 S.S.S.S.S.S.S.3 . . s G.H.H.E.E.E.n.",
"<.<.2.0.2.2.9.9.t.t.t.t.4.4.p.n.l.F.n.N.4 . . 3 S.S.S.S.S.. . 7 oXoX|.|.{.OX X XXXXX X.X+XOX+XXX8 . . y S.S.S.S.S.. . 6 T.T./.^.R.R.m.m.E.v.",
"<.<.9.8.r.r.s.t.t.t.k.k.D.D.j.n.F.F.n.E.4 . . 3 S.S.S.S.S.. . 7 oXoX|.%XOXOX.X@XXXXX+X+X X@X+XXX8 . . 3 S.S.S.S.S.. . 5 T.T.!.!.R.R.Q.m.E.v.",
":.:.y.y.e.e.u.u.x.5.l.l.n.c.F.W.Q.Q.~.!.s . . 3 S.S.S.S.S.. . 8 $X&X%X%X&X&X&X&X&X&X$X@XU.#XI.P.> . . 3 S.S.S.S.S.. . 5 ].].].(./.~.M.m.z.z.",
"O.O.y.y.e.p.u.u.N.N.v.v.M.M.W.W.Q.T.~.).K._.`.7 . . . . . $X$X$X=X=X%X@X&X&X*X*X*X*XK.K.#.U.@.=.r =.C.7 . . . . . _._._._.).(.).(.(.b.M.z.z.",
"%.w :.V.x.5.M.k.+.+.$.-.B.B.^.^.L.P.{..X XOX+X8 . . . . . }.#X#XY.Y.#.A.}.I.%XU.}.}.+.e &.+.u e u u t @ . . . . . {.].J.L.A.;.&.;.;.Z.a i i ",
"                                              . . . . . .                                             . . . . . .                           "
};
