/* XPM */
static char *Idle1709075454[] = {
/* columns rows colors chars-per-pixel */
"33 33 16 1 ",
"  c None",
". c #060E13",
"X c #031A1E",
"o c #28110E",
"O c #2D1411",
"+ c #0B1D28",
"@ c #63391E",
"# c #481E26",
"$ c #442326",
"% c #724326",
"& c #784046",
"* c #6F6F6F",
"= c #8D0A37",
"- c #CE1D39",
"; c #B97263",
": c #C69287",
/* pixels */
"                                 ",
"                                 ",
"                    %%%%%@       ",
"                   %%%%@@@       ",
"                   %@@@@;        ",
"                   %@@X;X        ",
"                 +.@@;;:;        ",
"                ++.@;:::;        ",
"                +++..::;;        ",
"              +++++++.;;.        ",
"            --=+++++++...        ",
"           ----=...+++...        ",
"           ----==.......         ",
"          ----==-=......-        ",
"          ++-==---=....=--       ",
"         :;+.=-----======-       ",
"         ::;.=------====.+       ",
"        ::;;--------===..;       ",
"        :;; --------===;;;:      ",
"       +;;  -------====;;::      ",
"      ++.; --------===  ;;::     ",
"      ++.  -------====   ;;:+    ",
"     ++.   $$$$$O=====    ;.++   ",
"     ++.   $$$$OOOO**o     .++   ",
"     :...  -----OOO**o      .++  ",
"      : ;  --------====     ...  ",
"           #--------====    ; :  ",
"           &##==----=====        ",
"           &&&##=========        ",
"           &&&#     #####        ",
"          &&&&#      #&&&&       ",
"          &&&##      ##&&&       ",
"          &&&#        #&&&       "
};
