/* XPM */
static char *f9ce521274bd4783fb05a5c590a75fc9K2xAGSZXxZIhfItl[] = {
/* columns rows colors chars-per-pixel */
"33 33 199 2 ",
"   c #1EC3BC",
".  c #0CBBCC",
"X  c #15BFC6",
"o  c #1CBDC5",
"O  c #17BECE",
"+  c #1BBECB",
"@  c #15BED1",
"#  c #1DBFD2",
"$  c #2AB4C1",
"%  c #22BAC3",
"&  c #22BECB",
"*  c #2ABECD",
"=  c #30BFC3",
"-  c #3BBEC6",
";  c #42BCC1",
":  c #06C2CF",
">  c #0EC5CD",
",  c #0DCBCD",
"<  c #17C3C4",
"1  c #1AC3C6",
"2  c #14C4CD",
"3  c #1BC3CC",
"4  c #13CBCE",
"5  c #1CCBCE",
"6  c #04C5D4",
"7  c #0CC4D3",
"8  c #05CCD4",
"9  c #0CC9D5",
"0  c #0DC7D9",
"q  c #06CADB",
"w  c #0CCCDC",
"e  c #13C4D3",
"r  c #1BC4D3",
"t  c #14CAD3",
"y  c #1CCBD4",
"u  c #13C5DB",
"i  c #1AC6D8",
"p  c #14CBDA",
"a  c #1BCBDB",
"s  c #02D2D5",
"d  c #0DD0D4",
"f  c #01D3DB",
"g  c #08D0DD",
"h  c #14D0D1",
"j  c #1DD1D2",
"k  c #10D0DF",
"l  c #23C5C6",
"z  c #2BC0C4",
"x  c #20CBC5",
"c  c #23C3CC",
"v  c #28C1CE",
"b  c #26CCCA",
"n  c #2DCCC8",
"m  c #39C8C6",
"M  c #31C3CC",
"N  c #20D0CE",
"B  c #3BD0CE",
"V  c #22C4D3",
"C  c #2BC6D5",
"Z  c #23CBD4",
"A  c #2BC9D5",
"S  c #21C6DB",
"D  c #22CBDB",
"F  c #2DCBD8",
"G  c #37C5D3",
"H  c #3CCAD5",
"J  c #3ACDDC",
"K  c #35CCDD",
"L  c #2FD3D4",
"P  c #24D2DE",
"I  c #2AD1DC",
"U  c #39D4D0",
"Y  c #0ACFE0",
"T  c #13CEE1",
"R  c #07D0E0",
"E  c #0BD0E1",
"W  c #14D2E2",
"Q  c #2FD1E0",
"!  c #27DDE8",
"~  c #3CD6E1",
"^  c #3CDDE5",
"/  c #3FDCEB",
"(  c #34DDE4",
")  c #3BE2E7",
"_  c #3CE3EC",
"`  c #3BE8EC",
"'  c #35E9F5",
"]  c #38E9F3",
"[  c #42CCCF",
"{  c #43C9D2",
"}  c #5FD2D7",
"|  c #5AD5DE",
" . c #6BDCDD",
".. c #57E7DD",
"X. c #44DCE5",
"o. c #4FDEE4",
"O. c #47DDEB",
"+. c #4BDEEC",
"@. c #52DAE5",
"#. c #61DEE2",
"$. c #46E1E5",
"%. c #43E5ED",
"&. c #4CE2EC",
"*. c #57E6EF",
"=. c #59E5EF",
"-. c #59F3EB",
";. c #41E7F7",
":. c #4CE4F2",
">. c #43E9F3",
",. c #4CE8F3",
"<. c #45E8F9",
"1. c #53E6F2",
"2. c #5CE7F1",
"3. c #52ECF4",
"4. c #5EEDF1",
"5. c #5BEFF9",
"6. c #5DF3F6",
"7. c #54F3FE",
"8. c #5DF5FC",
"9. c #52FDFF",
"0. c #5CFAFF",
"q. c #60EDE7",
"w. c #61E5EE",
"e. c #63EAED",
"r. c #76EEED",
"t. c #7CECED",
"y. c #7BF0EE",
"u. c #65E5F1",
"i. c #64EBF4",
"p. c #6DECF5",
"a. c #66EDFA",
"s. c #6CEEFB",
"d. c #75EDF6",
"f. c #7BEDF3",
"g. c #75EEFB",
"h. c #7BEDFA",
"j. c #6EF4F5",
"k. c #64F4FC",
"l. c #6CF4FD",
"z. c #64FAFE",
"x. c #6CFBFE",
"c. c #74F2F5",
"v. c #7BF1F4",
"b. c #7EFFF7",
"n. c #73F2FC",
"m. c #79F5FF",
"M. c #7AF2FC",
"N. c #70F9FF",
"B. c #70FBFF",
"V. c #74F9FE",
"C. c #7AFFFF",
"Z. c #7EFFFF",
"A. c #79FAFE",
"S. c #80EEEB",
"D. c #82EEEE",
"F. c #8FFBEE",
"G. c #90FFEF",
"H. c #81E7F5",
"J. c #84ECF3",
"K. c #8AEDF3",
"L. c #81EBFB",
"P. c #81EDF9",
"I. c #82EEFB",
"U. c #82EDFB",
"Y. c #9AEEF0",
"T. c #80F1F4",
"R. c #8AF3F7",
"E. c #8CF8F6",
"W. c #84F3FC",
"Q. c #8DF5FC",
"!. c #86FBFF",
"~. c #82FFFF",
"^. c #85FFFF",
"/. c #87FFFF",
"(. c #87FDFF",
"). c #8AFFFF",
"_. c #8FFFFF",
"`. c #8BFEFE",
"'. c #90FEF5",
"]. c #9DF9F6",
"[. c #92F6FE",
"{. c #9AF6FC",
"}. c #93FFFA",
"|. c #93FFFF",
" X c #90FFFF",
".X c #97FFFE",
"XX c #94FFFF",
"oX c #9CFFFB",
"OX c #99FFFF",
"+X c #9BFFFF",
"@X c #99FFFC",
"#X c #9EFFFF",
"$X c #9BFCFD",
"%X c #A6F4F4",
"&X c #A6F6FC",
"*X c #A9F6FC",
"=X c #A4FFFF",
"-X c #A4FCFE",
";X c #ABFCFE",
/* pixels */
"g.g.g.h.h.h.L.h.I.h.m.g.k.x.8.^ 7 p X U b..XG.oXS.f.p.i.a.x.k.x.k.",
"d.d.g.h.h.h.P.P.h.h.m.n.j.x.k.^ 7 p 3 B b.}.F.+X`.M.V.x.z.0.0.0.3.",
"j.c.d.c.M.h.P.P.P.f.h.m.g.j.l.X.e r v [ ).+X@X+X} - H A I y j b L ",
"j.c.n.c.v.f.f.f.W.h.d.m.n.i.N.~ r r v { _.+X+X|.| $ C 3 a > t 5 b ",
"j.j.j.c.c.c.d.d.M.c.c.V.B.k.x.J i e & H /.|.|./.@.% D e p 2 4 < n ",
"j.j.c.c.c.c.M.c.c.V.N.k.x.8.0.( p e V J C./.~.C.~ O a 7 i D 3 % m ",
"c.c.c.v.M.M.M.c.j.x.x.X.%.) ` P 0 p i I :.3.3.7.P e a e I 1.@.|  .",
"d.d.f.f.f.f.d.p.l.x.6.l 3 2 t 9 9 w p i V 3 X y t > a 3 X.Z.!..X#X",
"M.h.M.M.M.g.m.m.a.x.z.V r r 2 p w w p t y i y 2 4 > 2 o @.).+X=X;X",
"s.s.s.s.s.s.l.l.x.z.7.V r p p w Y R w 9 t t 4 2 y 5 l = #..X].Y.*X",
"0.0.0.0.0.0.0.0.7.7.;.P p u 0 6 f f s 8 9 t 2 3 A M - ;  .$X;X;X&X",
"y j y Z Z y r y D P a a 0 0 T q f f f s d t 5 c k.C.).Q.{.&X%X%X;X",
", , 4 4 4 4 2 2 e e 7 9 9 w W g f s s 8 , 4 1 % i./.#X=X&X*X*X*X].",
", 4 4 4 4 y y 2 a e 7 7 p w q 6 p t 9 t 4 4 l M A.|.#X&X*X&X;X;X{.",
"3 3 3 + + c V 3 r O i . p p 7 i V & + 3 < < 1 z j.!.[.-X=X-X#X{.{.",
"2.*.&.O.O.&.&.+.O./ <.r a e t ^ i.u.2.*.&.$.X.o.j./.Q.[.[.K.Q.Q.R.",
".X_.m.s.l.l.l.N.x.8.0.O 2 1 x -.)..X.X).c.n.V.s.V.n.f.f.f.J.D.J.f.",
"#X+XW.m.m.n.p.j.x.5.0.r 3 <   ..E.].+X[.f.h.g.p.n.n.n.c.v.v.y.t.f.",
"@X.XW.h.m.n.n.l.x.0.9.a i 3 l q.+X-X=X{.U.L.M.g.g.g.n.c.c.y.y.r.v.",
"E.E.W.d.g.n.p.=.,._ ' 0 t 2 c e.+X-X-X{.J.H.h.d.g.d.c.c.c.c.c.c.M.",
"t.f.v.h.m.g.@.M c y W 6 p e v w.+X$X#X{.J.H.P.f.f.v.c.c.c.c.c.c.h.",
"t.t.f.h.n.n.@.% 3 t k 9 p r * u..X@X#X.XK.J.W.f.f.v.v.c.c.c.n.n.n.",
"v.v.v.d.n.N.1.c y t 9 7 e + * w.).`.|._.J.t.f.t.f.f.v.c.d.g.n.n.l.",
"f.v.m.c.V.x.&.o e e e y Z v M i.).)._._.T.f.f.f.f.f.v.c.n.l.l.l.k.",
"h.d.g.n.l.k.%.r y 2 Z >.3.8.i.j.A.c.d.d.f.f.f.f.d.M.p.j.=.G J K F ",
"h.d.d.V.x.z.%.3 y r Z 7.6.z.4.j.V.c.d.g.M.h.g.c.c.V.l.k.&.& # r 2 ",
"h.d.g.V.x.z.%.2 2 2 Z 0.k.x.6.x.V.d.g.c.n.n.n.n.k.x.z.0.>.2 e p > ",
"h.h.M.c.x.z.>.2 p r Z 0.z.x.8.z.l.l.l.V.V.l.l.x.z.z.0.9.] t 7 w 7 ",
"h.h.v.v.j.x.>.y a e y ) %.$.) X.&.&.+.+.+.+.+.:.:.%._ ] ! 9 7 w 9 ",
"g.h.v.v.c.l.,.i 0 : e 2 Z 3 Z 3 Z c c V V V V V V r r i p t 0 T W ",
"c.d.T.t.f.V.:.i 0 q w 9 e e i e 4 , 2 e e e e r r r e e e e u u p ",
"c.d.f.f.v.V.:.@ 0 E w w : p u 7 t 4 t p p e e r r r r # r S S S i ",
"h.h.h.h.M.V.1.3 t 9 w w p T u a I Z Z Z Z F A A A A A C F F C C C "
};
